<svg width="50" height="50" viewBox="0 0 50 50" fill="none" xmlns="http://www.w3.org/2000/svg">
<path fill-rule="evenodd" clip-rule="evenodd" d="M25.2639 0C18.7845 0 12.5705 2.63392 7.98891 7.32233C3.4073 12.0107 0.833374 18.3696 0.833374 25C0.833374 31.6304 3.4073 37.9893 7.98891 42.6777C12.5705 47.3661 18.7845 50 25.2639 50C31.7433 50 37.9573 47.3661 42.5389 42.6777C47.1205 37.9893 49.6944 31.6304 49.6944 25C49.6944 21.717 49.0625 18.4661 47.8348 15.4329C46.607 12.3998 44.8075 9.6438 42.5389 7.32233C40.2703 5.00087 37.5771 3.15938 34.613 1.90301C31.649 0.646645 28.4722 0 25.2639 0ZM41.9747 26.1605C42.0545 25.6854 42.5444 22.3217 40.0492 20.124C38.9202 19.1201 37.4717 18.5728 35.9761 18.585C34.3236 18.5958 32.7429 19.2771 31.5809 20.4793C30.4188 21.6816 29.7704 23.3065 29.778 24.9975C29.7725 26.5282 30.2995 28.0109 31.2649 29.1802C32.2384 30.3348 33.5809 31.0982 35.0532 31.3342C36.1188 31.5148 37.2122 31.4011 38.2206 31.0048C39.0737 30.6669 39.8445 30.1427 40.4794 29.4688L38.4855 27.6179C38.1747 27.9713 37.7947 28.2538 37.3702 28.4472C36.9457 28.6405 36.4863 28.7403 36.0216 28.7401C35.2811 28.7394 34.5621 28.485 33.9792 28.0175C33.3964 27.5499 32.9833 26.8962 32.8058 26.1605H41.9747ZM32.746 24.0415C32.8771 23.2518 33.2771 22.535 33.875 22.0181C34.473 21.5012 35.2303 21.2174 36.0131 21.217C36.797 21.2155 37.556 21.4984 38.1553 22.0155C38.7545 22.5327 39.1551 23.2505 39.2859 24.0415H32.746ZM15.6426 18.5848H18.8242L23.8744 29.3461C23.9527 29.5198 23.9999 29.7064 24.014 29.897C24.0284 30.0921 24.0032 30.2881 23.94 30.4727C23.8768 30.6573 23.7768 30.8265 23.6465 30.9697C23.5161 31.1113 23.3584 31.2238 23.1834 31.3C23.0084 31.3763 22.8199 31.4146 22.6297 31.4127C22.3269 31.4083 22.0318 31.3151 21.7793 31.1441C21.5268 30.973 21.3277 30.7314 21.2055 30.4479L15.6426 18.5848ZM11.6325 18.5848H8.45937L14.0223 30.4479C14.1453 30.7308 14.3447 30.9718 14.5969 31.1427C14.8492 31.3136 15.1439 31.4073 15.4464 31.4127C15.6371 31.4149 15.8261 31.3766 16.0016 31.3004C16.1771 31.2241 16.3353 31.1115 16.4662 30.9697C16.5961 30.8264 16.6956 30.6571 16.7583 30.4725C16.8211 30.2878 16.8458 30.0919 16.8308 29.897C16.818 29.7061 16.7707 29.5193 16.6912 29.3461L11.6325 18.5848ZM24.5626 22.1088C24.5749 21.9438 24.6114 21.7817 24.6709 21.6278L26.1178 18.5788H29.2966L27.2857 22.8433C27.1464 23.0798 26.9502 23.2758 26.7158 23.4126C26.4815 23.5493 26.2167 23.6223 25.9469 23.6245C25.7567 23.6267 25.5681 23.5884 25.3931 23.5121C25.2181 23.4358 25.0604 23.3233 24.9301 23.1815C24.7992 23.0387 24.6989 22.8696 24.6356 22.6849C24.5723 22.5001 24.5475 22.3039 24.5626 22.1088Z" fill="black"/>
</svg>
