<svg width="271" height="271" viewBox="0 0 271 271" fill="none" xmlns="http://www.w3.org/2000/svg">
<rect width="271" height="271" fill="white"/>
<circle cx="135.5" cy="135.5" r="112.5" fill="black"/>
<path d="M150.515 200.122C147.963 202.87 144.438 204.38 140.585 204.38C134.594 204.38 129.096 200.736 126.581 195.096L72.2988 81.2109H103.242L152.729 184.514C153.51 186.229 153.969 188.011 154.086 189.82C154.341 193.711 153.074 197.375 150.511 200.122" fill="white"/>
<path d="M196.33 109.352L196.3 109.42C196.27 109.481 196.244 109.542 196.21 109.598L178.62 145.606C177.876 147.127 175.644 147.127 174.903 145.606L157.303 109.579C157.28 109.53 157.25 109.485 157.231 109.432L157.19 109.352C155.859 106.533 155.115 103.38 155.115 100.057C155.115 88.0596 164.823 78.2988 176.756 78.2988C188.689 78.2988 198.401 88.0596 198.401 100.057C198.401 103.38 197.653 106.529 196.326 109.352" fill="white"/>
</svg>
