<svg width="50" height="50" viewBox="0 0 50 50" fill="none" xmlns="http://www.w3.org/2000/svg">
<circle cx="25" cy="25" r="25" fill="black"/>
<circle cx="24.6754" cy="25.3246" r="24.026" fill="white"/>
<path d="M49.278 25.3164C49.2796 30.1971 47.855 34.9686 45.1842 39.0276C42.5135 43.0865 38.7167 46.2505 34.274 48.1194C29.8313 49.9883 24.9423 50.4781 20.2252 49.5269C15.5082 48.5758 11.175 46.2263 7.7738 42.7758C4.37257 39.3252 2.05605 34.9285 1.11722 30.1417C0.178381 25.3549 0.659407 20.3931 2.49946 15.8838C4.33951 11.3745 7.45592 7.52026 11.4546 4.80853C15.4532 2.09681 20.1544 0.649414 24.9637 0.649414C31.4109 0.649047 37.5943 3.2475 42.154 7.87331C46.7136 12.4991 49.2762 18.7735 49.278 25.3164V25.3164ZM28.0893 40.9914C28.3798 40.6752 28.6024 40.3014 28.7431 39.8934C28.8838 39.4854 28.9396 39.0523 28.9068 38.6213C28.878 38.199 28.7732 37.7857 28.5976 37.4017L17.2995 13.6473H10.2389L22.627 39.8409C22.9007 40.4711 23.3477 41.0077 23.9144 41.3864C24.4812 41.765 25.1436 41.9698 25.8221 41.9759C26.2462 41.9808 26.6666 41.8963 27.0569 41.7277C27.4471 41.5592 27.7987 41.3104 28.0893 40.9969M38.4323 20.1173C38.7877 19.3533 38.9471 18.5105 38.8956 17.6673C38.8441 16.8241 38.5835 16.0077 38.1379 15.2941C37.6923 14.5805 37.0761 13.9927 36.3468 13.5855C35.6174 13.1782 34.7984 12.9647 33.9659 12.9647C33.1334 12.9647 32.3144 13.1782 31.585 13.5855C30.8557 13.9927 30.2395 14.5805 29.7939 15.2941C29.3483 16.0077 29.0877 16.8241 29.0362 17.6673C28.9847 18.5105 29.1441 19.3533 29.4995 20.1173V20.1173L29.5091 20.1352C29.5137 20.1471 29.5192 20.1587 29.5254 20.1698L33.5422 28.4567C33.5823 28.5356 33.6431 28.6018 33.7178 28.648C33.7926 28.6942 33.8784 28.7186 33.9659 28.7186C34.0534 28.7186 34.1392 28.6942 34.214 28.648C34.2887 28.6018 34.3495 28.5356 34.3896 28.4567L38.4023 20.1712C38.4099 20.1578 38.4167 20.1439 38.4227 20.1297L38.4309 20.1145" fill="black"/>
</svg>
