<svg width="28" height="32" viewBox="0 0 28 32" fill="none" xmlns="http://www.w3.org/2000/svg">
<path d="M6.08984 17.977H12.8847V16.4871H8.41299L10.3467 14.8318C11.9984 13.4247 12.7907 12.6108 12.7907 11.0933C12.7907 9.34139 11.5284 8.18262 9.6887 8.18262C8.01013 8.18262 7.12384 8.91375 6.22413 10.2105L7.39241 11.1485C8.11756 10.1829 8.70841 9.70006 9.56784 9.70006C10.4273 9.70006 11.0853 10.2519 11.0853 11.2037C11.0853 12.0728 10.6153 12.6935 9.32613 13.8109L6.08984 16.6389V17.977Z" fill="white"/>
<path d="M15.9233 17.977H17.5616V8.25159H16.4068L13.8822 9.07929L14.2313 10.4588L15.9233 9.97595V17.977Z" fill="white"/>
<path fill-rule="evenodd" clip-rule="evenodd" d="M20.8854 22.9779C19.1085 25.7712 16.387 28.1789 12.5995 30.2114H12.5993C8.80814 28.1933 6.08497 25.7944 4.31039 23.0062C2.48441 20.1385 1.64436 16.8353 1.66127 13.0879V5.85504C3.75383 5.74434 5.70556 5.36529 7.51394 4.71858C9.35243 4.06129 11.0477 3.12486 12.5979 1.91135C14.148 3.12511 15.8434 4.06129 17.6819 4.71858C19.4902 5.36531 21.442 5.74436 23.5345 5.85504L23.5355 7.95703H25.194V5.04703C25.194 4.58173 24.822 4.20457 24.3637 4.20457L24.306 4.20645C22.1179 4.15736 20.0923 3.79972 18.2323 3.13443C16.3613 2.46565 14.6581 1.48428 13.1256 0.193942C12.8122 -0.070663 12.3629 -0.0600871 12.0625 0.198642C10.5316 1.48663 8.83025 2.46638 6.96164 3.13443C5.08165 3.80677 3.03261 4.1649 0.817325 4.2079C0.365006 4.21494 0.00347409 4.58927 0 5.04657L0.00347408 13.0886C-0.0109336 17.1625 0.911336 20.7672 2.91495 23.9147C4.91069 27.0503 7.96618 29.7114 12.2213 31.9085C12.4908 32.0474 12.7998 32.0227 13.0386 31.8712C17.2626 29.6615 20.2969 27.004 22.2797 23.8863L22.279 23.8869C23.3948 22.133 24.1753 20.2393 24.646 18.2032H22.9396C22.504 19.9096 21.8252 21.5008 20.8854 22.9779Z" fill="white"/>
<path fill-rule="evenodd" clip-rule="evenodd" d="M25.1563 9.30078H23.4884V12.2236H20.6426L20.6426 13.937H23.4884V16.8591H25.1563V13.937H28.0002V12.2236H25.1563V9.30078Z" fill="white"/>
</svg>
