<svg width="28" height="30" viewBox="0 0 28 30" fill="none" xmlns="http://www.w3.org/2000/svg">
<path fill-rule="evenodd" clip-rule="evenodd" d="M20.8854 21.2798C19.1085 23.7936 16.387 25.9607 12.5995 27.7899H12.5993C8.80814 25.9735 6.08497 23.8146 4.31039 21.3052C2.48441 18.7242 1.64436 15.7514 1.66127 12.3787V5.86914C3.75383 5.76952 5.70556 5.42837 7.51394 4.84633C9.35243 4.25477 11.0477 3.41199 12.5979 2.31982C14.148 3.4122 15.8434 4.25477 17.6819 4.84633C19.4902 5.42839 21.442 5.76953 23.5345 5.86914L23.5362 8.95664H25.194V5.14194C25.194 4.72317 24.822 4.38372 24.3637 4.38372L24.306 4.38542C22.1179 4.34124 20.0923 4.01936 18.2323 3.42059C16.3613 2.81869 14.6581 1.93546 13.1256 0.774158C12.8122 0.536013 12.3629 0.545531 12.0625 0.778387C10.5316 1.93758 8.83025 2.81935 6.96164 3.4206C5.08165 4.0257 3.03261 4.34802 0.817325 4.38672C0.365006 4.39306 0.00347409 4.72995 0 5.14152L0.00347408 12.3793C-0.0109336 16.0458 0.911336 19.2901 2.91495 22.1228C4.91069 24.9448 7.96618 27.3398 12.2213 29.3173C12.4908 29.4423 12.7998 29.4201 13.0386 29.2837C17.2626 27.295 20.2969 24.9032 22.2797 22.0973L22.279 22.0978C22.9307 21.1759 23.468 20.211 23.896 19.2028H22.1043C21.7621 19.921 21.3566 20.6133 20.8854 21.2798Z" fill="white"/>
<path fill-rule="evenodd" clip-rule="evenodd" d="M25.1563 10.3008H23.4884V13.2236H20.6426L20.6426 14.937H23.4884V17.8591H25.1563V14.937H28.0002V13.2236H25.1563V10.3008Z" fill="white"/>
<path d="M8.04114 18.9774H9.67943V9.25195H8.52457L6 10.0796L6.34914 11.4591L8.04114 10.9763V18.9774Z" fill="white"/>
<path d="M14.41 19.14C13.3273 19.14 12.4313 18.8787 11.722 18.356C11.022 17.8333 10.672 17.152 10.672 16.312C10.672 15.2107 11.26 14.4127 12.436 13.918C11.484 13.414 11.008 12.6767 11.008 11.706C11.008 10.95 11.33 10.32 11.974 9.816C12.618 9.312 13.43 9.06 14.41 9.06C15.39 9.06 16.202 9.312 16.846 9.816C17.49 10.32 17.812 10.9593 17.812 11.734C17.812 12.686 17.336 13.414 16.384 13.918C17.56 14.4593 18.148 15.2527 18.148 16.298C18.148 17.1567 17.798 17.8473 17.098 18.37C16.398 18.8833 15.502 19.14 14.41 19.14ZM13.15 12.938C13.486 13.2087 13.906 13.344 14.41 13.344C14.914 13.344 15.3293 13.2087 15.656 12.938C15.992 12.658 16.16 12.3033 16.16 11.874C16.16 11.4913 15.9967 11.1693 15.67 10.908C15.3433 10.6373 14.9233 10.502 14.41 10.502C13.8967 10.502 13.4767 10.6373 13.15 10.908C12.8233 11.1693 12.66 11.496 12.66 11.888C12.66 12.3173 12.8233 12.6673 13.15 12.938ZM12.912 17.278C13.2853 17.558 13.7847 17.698 14.41 17.698C15.0353 17.698 15.5347 17.558 15.908 17.278C16.2813 16.9887 16.468 16.6293 16.468 16.2C16.468 15.7613 16.272 15.4067 15.88 15.136C15.488 14.856 14.998 14.716 14.41 14.716C13.822 14.716 13.332 14.856 12.94 15.136C12.548 15.4067 12.352 15.7707 12.352 16.228C12.352 16.6387 12.5387 16.9887 12.912 17.278Z" fill="white"/>
</svg>
