<svg width="40" height="40" viewBox="0 0 40 40" fill="none" xmlns="http://www.w3.org/2000/svg">
<path d="M27.4001 4.00002C25.3473 3.9996 23.3631 4.7392 21.8114 6.08321C20.2598 7.42721 19.2446 9.28552 18.9521 11.3174C18.9305 11.4695 18.9421 11.6244 18.986 11.7716C19.0299 11.9187 19.1051 12.0547 19.2063 12.1702C19.3076 12.2856 19.4326 12.3779 19.5728 12.4405C19.7131 12.5032 19.8651 12.5349 20.0187 12.5334C20.276 12.5363 20.5256 12.4461 20.7216 12.2795C20.9176 12.1129 21.0468 11.8811 21.0854 11.6267C21.3174 9.94064 22.2096 8.41578 23.5659 7.38757C24.9222 6.35937 26.6313 5.91206 28.3174 6.14403C30.0035 6.37601 31.5284 7.26828 32.5566 8.62454C33.5848 9.98081 34.0321 11.69 33.8001 13.3761C33.5574 14.948 32.7518 16.3782 31.5333 17.4005C30.3147 18.4228 28.7663 18.9676 27.1761 18.9334H6.06667C5.78377 18.9334 5.51246 19.0458 5.31242 19.2458C5.11238 19.4459 5 19.7172 5 20.0001C5 20.283 5.11238 20.5543 5.31242 20.7543C5.51246 20.9544 5.78377 21.0668 6.06667 21.0668H27.1014C29.305 21.1025 31.4405 20.3029 33.0789 18.8288C34.7172 17.3547 35.7371 15.3152 35.9335 13.1201C36.014 11.9511 35.853 10.7781 35.4603 9.67404C35.0677 8.57004 34.4519 7.55872 33.6514 6.70311C32.8508 5.8475 31.8826 5.16593 30.8071 4.70088C29.7316 4.23582 28.5718 3.99725 27.4001 4.00002Z" fill="white"/>
<path d="M22.9094 23.2002H6.06667C5.78377 23.2002 5.51246 23.3126 5.31242 23.5126C5.11238 23.7127 5 23.984 5 24.2669C5 24.5498 5.11238 24.8211 5.31242 25.0211C5.51246 25.2212 5.78377 25.3335 6.06667 25.3335H22.9094C23.5552 25.3332 24.1926 25.4795 24.7737 25.7613C25.3547 26.0432 25.8642 26.4532 26.2637 26.9606C26.6632 27.4679 26.9424 28.0594 27.0801 28.6903C27.2178 29.3212 27.2105 29.9752 27.0588 30.6029C26.831 31.5428 26.2906 32.3775 25.5263 32.9701C24.7619 33.5626 23.819 33.878 22.8519 33.8643C21.8849 33.8507 20.9511 33.5089 20.2038 32.895C19.4565 32.2811 18.9399 31.4315 18.7387 30.4856C18.6955 30.2351 18.5644 30.0083 18.3688 29.846C18.1732 29.6837 17.9262 29.5965 17.6721 29.6002C17.5174 29.5985 17.3643 29.6304 17.2232 29.6937C17.0821 29.757 16.9565 29.8502 16.8551 29.9669C16.7536 30.0836 16.6787 30.2209 16.6356 30.3694C16.5925 30.5179 16.5822 30.674 16.6054 30.8269C16.8377 32.0167 17.4033 33.1161 18.2362 33.9971C19.069 34.878 20.135 35.5042 21.31 35.8029C22.4849 36.1016 23.7205 36.0604 24.873 35.6842C26.0255 35.3079 27.0474 34.6121 27.8197 33.6777C28.5921 32.7432 29.0832 31.6086 29.2358 30.406C29.3885 29.2033 29.1964 27.982 28.6819 26.8842C28.1674 25.7865 27.3518 24.8574 26.3298 24.2052C25.3079 23.553 24.1217 23.2045 22.9094 23.2002Z" fill="white"/>
<path d="M12.03 14.5071H6.15261C5.86971 14.5071 5.5984 14.6194 5.39836 14.8195C5.19832 15.0195 5.08594 15.2908 5.08594 15.5737C5.08594 15.8566 5.19832 16.1279 5.39836 16.328C5.5984 16.528 5.86971 16.6404 6.15261 16.6404H11.9766C13.1961 16.6605 14.3801 16.2295 15.3013 15.4303C16.2226 14.6311 16.8164 13.5198 16.9686 12.3097C17.0859 11.122 16.7565 9.93327 16.0447 8.97531C15.3329 8.01735 14.2898 7.35892 13.1188 7.12845C11.9478 6.89798 10.7329 7.11201 9.71122 7.72879C8.68949 8.34556 7.93417 9.32084 7.59261 10.4644C7.543 10.6275 7.53323 10.8002 7.56411 10.9679C7.595 11.1356 7.66564 11.2935 7.77011 11.4282C7.87458 11.563 8.00985 11.6708 8.16456 11.7425C8.31927 11.8142 8.48892 11.8478 8.65928 11.8404C8.90295 11.8475 9.14169 11.7709 9.33577 11.6234C9.52985 11.4759 9.66755 11.2664 9.72596 11.0297C9.92618 10.4028 10.3512 9.87206 10.9191 9.53961C11.4871 9.20716 12.1579 9.09647 12.8026 9.22885C13.4473 9.36122 14.0202 9.72731 14.4112 10.2567C14.8022 10.786 14.9837 11.4413 14.9206 12.0964C14.828 12.7871 14.4796 13.4179 13.9444 13.8642C13.4092 14.3106 12.7261 14.54 12.03 14.5071Z" fill="white"/>
</svg>
