<svg width="40" height="40" viewBox="0 0 40 40" fill="none" xmlns="http://www.w3.org/2000/svg">
<path d="M30.8604 9.09896L30.88 9.12005L30.901 9.13959L36.9551 14.7466C40.015 17.5805 40.015 22.4195 36.9551 25.2534L30.901 30.8604L30.88 30.88L30.8604 30.901L25.2534 36.9551C22.4195 40.015 17.5805 40.015 14.7466 36.9551L9.13959 30.901L9.12005 30.88L9.09896 30.8604L3.04489 25.2534C-0.014963 22.4195 -0.0149618 17.5805 3.04489 14.7466L9.09896 9.13959L9.12005 9.12005L9.13959 9.09896L14.7466 3.04489C17.5805 -0.0149626 22.4195 -0.0149622 25.2534 3.04489L30.8604 9.09896Z" stroke="white" stroke-width="1.5"/>
<rect x="18.3379" y="6.97754" width="2.2" height="3.91111" rx="1.1" fill="white"/>
<rect x="22.4941" y="6" width="2.2" height="4.88889" rx="1.1" fill="white"/>
<circle cx="14.9159" cy="9.1776" r="1.71667" stroke="white" stroke-width="0.5"/>
<path d="M16 8L13.5 10.5" stroke="white" stroke-width="0.5"/>
<rect x="5.69922" y="13.0996" width="27.6" height="14.4" rx="6.58889" stroke="white"/>
<rect x="7.89844" y="15.2998" width="18.8" height="10" rx="5" stroke="white"/>
<path d="M10.6992 15.8998L11.7992 15.171V25.3693L10.6992 24.6996V15.8998Z" fill="white"/>
<path d="M22.7988 15.3496L23.8988 15.8996V24.6996L22.7988 25.2496V15.3496Z" fill="white"/>
<rect x="14" y="14.7998" width="4.4" height="11" fill="white"/>
</svg>
