<svg width="36" height="36" viewBox="0 0 36 36" fill="none" xmlns="http://www.w3.org/2000/svg">
<path d="M24.4523 22.1142C23.6703 21.7722 21.5043 21.1906 21.2439 20.2058C20.8355 18.6482 22.3871 17.4618 23.0775 16.2354C23.8039 14.9426 24.4103 13.193 24.5283 11.7306C24.9535 6.48183 21.7351 3.41063 17.1207 3.94223C13.7663 4.32823 11.7627 6.82903 11.5459 10.0498C11.3259 13.3318 12.5435 15.7554 13.8367 17.533C14.4027 18.3102 14.9967 18.8102 14.9063 19.747C14.7999 20.855 13.6155 21.1634 12.7683 21.5034C11.7639 21.9074 10.6831 22.5194 10.1723 22.8022C8.51387 23.7182 6.70347 24.8106 6.13867 26.2746C8.75787 30.0166 13.0963 32.4706 18.0003 32.4706C22.9203 32.4706 27.2723 30.001 29.8875 26.2378C29.1035 24.2378 26.3979 22.969 24.4523 22.1142Z" fill="white"/>
<path d="M18 0C8.0752 0 0 8.0748 0 18C0 27.9252 8.0752 36 18 36C27.9256 36 36 27.9248 36 18C36 8.0748 27.9256 0 18 0ZM18 33.8824C9.2288 33.8824 2.1176 26.772 2.1176 18C2.1176 9.228 9.2288 2.1172 18 2.1172C26.772 2.1172 33.8824 9.2276 33.8824 18C33.8824 26.772 26.772 33.8824 18 33.8824Z" fill="white"/>
</svg>
