<svg width="10" height="45" viewBox="0 0 10 45" fill="none" xmlns="http://www.w3.org/2000/svg">
<path d="M0.5 10C0.5 8.61929 1.61929 7.5 3 7.5H7C8.38071 7.5 9.5 8.61929 9.5 10V41.4773C9.5 43.1467 8.14668 44.5 6.47727 44.5H3.52273C1.85332 44.5 0.5 43.1467 0.5 41.4773V10Z" stroke="#414040"/>
<circle cx="5" cy="39" r="1.5" stroke="#414040"/>
<path d="M2.08562 6.93002L1.80433 7.5H8.19567L7.91438 6.93002C7.16575 5.41304 6.72203 3.76392 6.60837 2.07609L6.60317 1.99884C6.54636 1.15524 5.84551 0.5 5 0.5C4.15449 0.5 3.45364 1.15524 3.39683 1.99884L3.39163 2.07609C3.27797 3.76392 2.83425 5.41304 2.08562 6.93002Z" stroke="#414040"/>
</svg>
