<svg width="40" height="40" viewBox="0 0 40 40" fill="none" xmlns="http://www.w3.org/2000/svg">
<path d="M18.5547 6.72266H21.4436C22.8243 6.72266 23.9436 7.84194 23.9436 9.22266V36.4777C23.9436 38.1471 22.5903 39.5004 20.9208 39.5004H19.0774C17.408 39.5004 16.0547 38.1471 16.0547 36.4777V9.22265C16.0547 7.84194 17.174 6.72266 18.5547 6.72266Z" stroke="white"/>
<circle cx="19.9985" cy="34.6665" r="1.27778" stroke="white"/>
<path d="M17.4582 6.18482L17.2477 6.61133H22.7501L22.5397 6.18482C21.871 4.82988 21.4747 3.3569 21.3731 1.84936L21.3685 1.7807C21.32 1.06 20.7212 0.500217 19.9989 0.500217C19.2766 0.500217 18.6778 1.06 18.6293 1.7807L18.6247 1.84936C18.5232 3.3569 18.1268 4.82988 17.4582 6.18482Z" stroke="white"/>
</svg>
