<svg width="7" height="45" viewBox="0 0 7 45" fill="none" xmlns="http://www.w3.org/2000/svg">
<rect x="0.4" y="6.43711" width="5.51115" height="36.7925" stroke="#414040" stroke-width="0.8"/>
<path d="M0.4 2.46591C0.4 1.32494 1.32494 0.4 2.46591 0.4H3.84525C4.98621 0.4 5.91115 1.32494 5.91115 2.46591V5.91115H0.4V2.46591Z" stroke="#414040" stroke-width="0.8"/>
<path d="M0.4 2.46958C0.4 1.32784 1.32571 0.4 2.46591 0.4H3.84525C4.98544 0.4 5.91115 1.32784 5.91115 2.46958C5.91115 3.61133 4.98544 4.53916 3.84524 4.53916H2.46591C1.32571 4.53916 0.4 3.61133 0.4 2.46958Z" stroke="#414040" stroke-width="0.8"/>
<path d="M0.694136 43.8484C0.92474 44.3096 1.39613 44.601 1.91178 44.601H4.39938C4.91502 44.601 5.38641 44.3096 5.61702 43.8484L5.66394 43.7546H0.647214L0.694136 43.8484Z" stroke="#414040" stroke-width="0.8"/>
<circle cx="3.01847" cy="40.0624" r="0.87199" stroke="#414040"/>
</svg>
