<svg width="21" height="40" viewBox="0 0 21 40" fill="none" xmlns="http://www.w3.org/2000/svg">
<circle cx="6.01758" cy="30.1914" r="1.5" stroke="#414040"/>
<path d="M0.517578 12.2666H19.8107V36.4119C19.8107 38.0813 18.4573 39.4346 16.7879 39.4346H3.54031C1.8709 39.4346 0.517578 38.0813 0.517578 36.4119V12.2666Z" stroke="#414040"/>
<path d="M0.517578 11.6377H19.8107V10.4743C19.8107 7.98901 17.7959 5.97429 15.3107 5.97429H5.01758C2.53229 5.97429 0.517578 7.98901 0.517578 10.4743V11.6377Z" stroke="#414040"/>
<path d="M4.724 2.5871L4.24112 5.46973H10.5217L10.0388 2.58709C9.837 1.38256 8.79445 0.500129 7.57313 0.500129H7.18965C5.96833 0.500129 4.92578 1.38256 4.724 2.5871Z" stroke="#414040"/>
<path d="M0.322266 35.9053H20.161" stroke="#414040"/>
</svg>
