<svg width="18" height="34" viewBox="0 0 18 34" fill="none" xmlns="http://www.w3.org/2000/svg">
<circle cx="5.09794" cy="25.6556" r="1.1995" stroke="#414040"/>
<path d="M0.5 10.499H16.7441V30.4121C16.7441 32.0815 15.3908 33.4349 13.7214 33.4349H3.52273C1.85332 33.4349 0.5 32.0815 0.5 30.4121V10.499Z" stroke="#414040"/>
<path d="M0.5 9.81543H16.7441V9.65319C16.7441 7.16791 14.7294 5.15319 12.2441 5.15319H5C2.51472 5.15319 0.5 7.16791 0.5 9.65319V9.81543Z" stroke="#414040"/>
<path d="M4.04541 2.37097L3.67666 4.57227H8.83606L8.46731 2.37097C8.28638 1.29087 7.35152 0.499586 6.25636 0.499586C5.1612 0.499586 4.22635 1.29087 4.04541 2.37097Z" stroke="#414040"/>
<path d="M0.259766 30.5107H17.1178" stroke="#414040"/>
</svg>
