<svg width="40" height="40" viewBox="0 0 40 40" fill="none" xmlns="http://www.w3.org/2000/svg">
<path d="M17.58 30.2416C17.58 30.94 16.9884 31.5449 16.2103 31.5449C15.4322 31.5449 14.8406 30.94 14.8406 30.2416C14.8406 29.5431 15.4322 28.9383 16.2103 28.9383C16.9884 28.9383 17.58 29.5431 17.58 30.2416Z" stroke="white" stroke-width="1.4"/>
<path d="M10.7 12.4852H30.3V36.471C30.3 38.0332 29.0336 39.2996 27.4715 39.2996H13.5285C11.9664 39.2996 10.7 38.0332 10.7 36.471V12.4852Z" stroke="white" stroke-width="1.4"/>
<path d="M10.7 11.4572H30.3V10.4911C30.3 8.11171 28.3711 6.18285 25.9918 6.18285H15.0082C12.6289 6.18285 10.7 8.11172 10.7 10.4911V11.4572Z" stroke="white" stroke-width="1.4"/>
<path d="M15.051 2.61194L14.5894 5.27949H20.6482L20.1865 2.61194C19.9953 1.50704 19.0367 0.700065 17.9154 0.700065H17.3222C16.2009 0.700065 15.2422 1.50704 15.051 2.61194Z" stroke="white" stroke-width="1.4"/>
<path d="M10.3164 35.9648H30.8463" stroke="white" stroke-width="1.00165"/>
</svg>
