<svg width="40" height="40" viewBox="0 0 40 40" fill="none" xmlns="http://www.w3.org/2000/svg">
<rect x="17.8441" y="6.44863" width="4.6293" height="31.0441" stroke="white" stroke-width="0.7"/>
<path d="M19.5764 1.35H20.7412C21.6979 1.35 22.4734 2.12557 22.4734 3.08228V6.43807H17.8441V3.08228C17.8441 2.12557 18.6197 1.35 19.5764 1.35Z" stroke="white" stroke-width="0.7"/>
<path d="M19.5764 1.42221H20.7412C21.6572 1.42221 22.4012 2.16773 22.4012 3.08538C22.4012 4.00303 21.6572 4.74854 20.7412 4.74854H19.5764C18.6604 4.74854 17.9164 4.00303 17.9164 3.08538C17.9164 2.16773 18.6604 1.42221 19.5764 1.42221Z" stroke="white" stroke-width="0.844426"/>
<path d="M19.1085 38.5778H21.2091C21.5963 38.5778 21.9516 38.3678 22.1391 38.032H18.1785C18.366 38.3678 18.7213 38.5778 19.1085 38.5778Z" stroke="white" stroke-width="0.844426"/>
<circle cx="20.0414" cy="34.8304" r="0.736331" stroke="white" stroke-width="0.844426"/>
</svg>
