<svg width="64" height="64" viewBox="0 0 64 64" fill="none" xmlns="http://www.w3.org/2000/svg">
<path fill-rule="evenodd" clip-rule="evenodd" d="M32.4065 63.6938C49.8531 63.6938 63.9965 49.5504 63.9965 32.1037C63.9965 14.657 49.8531 0.513672 32.4065 0.513672C14.9598 0.513672 0.816406 14.657 0.816406 32.1037C0.816406 34.2672 1.03388 36.3798 1.44817 38.421H33.0646V45.1338L3.61982 45.1326C8.58219 56.0793 19.6051 63.6938 32.4065 63.6938ZM37.2058 19.9165C38.5819 18.5627 39.4434 16.672 39.4434 14.591C39.4434 10.4514 36.0757 7.09493 31.9473 7.09493V10.4514C34.2297 10.4514 36.0869 12.3086 36.0869 14.591C36.0869 16.8734 34.2297 18.7307 31.9473 18.7307V22.0871C36.9707 22.0871 40.8978 26.1707 40.8978 31.1943V36.1841H44.2542V31.1831C44.2543 26.2043 41.3901 21.9081 37.2058 19.9165ZM30.8959 25.4324H27.4724V25.4436C25.19 25.4436 23.3327 23.2507 23.3327 20.9683C23.3327 18.686 25.19 17.0525 27.4724 17.0525V13.6961C23.3439 13.6961 19.9763 17.0525 19.9763 21.1922C19.9763 25.3318 23.3327 28.6882 27.4724 28.6882V28.677H30.8959C33.2342 28.677 35.3041 30.3329 35.3041 33.2754V36.1842H38.6605V32.5033C38.6604 28.4755 35.0803 25.4324 30.8959 25.4324ZM38.6556 38.421H35.2992V45.1338H38.6556V38.421ZM40.8932 38.421H44.2497V45.1338H40.8932V38.421ZM31.0914 50.5322H33.7239V53.1647H31.0914V50.5322ZM42.9377 50.5322H40.3052V53.1647H42.9377V50.5322ZM45.5702 47.8997H48.2027V50.5322H45.5702V47.8997ZM38.9889 54.481H36.3564V57.1135H38.9889V54.481ZM31.0914 57.1135H33.7239V59.746H31.0914V57.1135ZM46.8864 54.481H44.2539V57.1135H46.8864V54.481Z" fill="black"/>
<rect x="14.2656" y="46.709" width="46.7121" height="3.94876" transform="rotate(-45 14.2656 46.709)" fill="#A1BE07"/>
<rect width="46.7121" height="3.94876" transform="matrix(-0.707107 -0.707107 -0.707107 0.707107 49.8047 46.709)" fill="#A1BE07"/>
</svg>
