<svg width="64" height="64" viewBox="0 0 64 64" fill="none" xmlns="http://www.w3.org/2000/svg">
<circle cx="31.59" cy="31.5998" r="31.59" fill="black"/>
<path d="M45.3963 44.2158L37.377 28.9615C36.79 27.8425 36.4719 26.5864 36.4664 25.3249L36.3787 18.7871H26.5493L26.4615 25.3249C26.4505 26.5864 26.1379 27.8425 25.551 28.9615L17.5317 44.2158C16.9393 45.3402 16.9777 46.6676 17.6359 47.7592C18.2941 48.8452 19.446 49.498 20.7186 49.498H42.2039C43.4765 49.498 44.6284 48.8452 45.2866 47.7592C45.9503 46.6676 45.9887 45.3402 45.3963 44.2158ZM30.1607 43.5279C28.9638 43.5279 27.994 42.5576 27.994 41.3613C27.994 40.1644 28.9638 39.1946 30.1607 39.1946C31.357 39.1946 32.3268 40.1644 32.3268 41.3613C32.3268 42.5576 31.357 43.5279 30.1607 43.5279ZM30.723 35.3331C29.2156 35.3331 27.994 34.111 27.994 32.6042C27.994 31.0969 29.2156 29.8753 30.723 29.8753C32.2297 29.8753 33.4513 31.0969 33.4513 32.6042C33.4513 34.111 32.2297 35.3331 30.723 35.3331ZM36.1193 38.7734C35.1692 38.7734 34.3991 38.0033 34.3991 37.0532C34.3991 36.1032 35.1692 35.3331 36.1193 35.3331C37.0693 35.3331 37.8394 36.1032 37.8394 37.0532C37.8394 38.0033 37.0693 38.7734 36.1193 38.7734Z" fill="white"/>
<path d="M26.5386 18.143H36.3834C37.391 18.143 38.2104 17.323 38.2104 16.3154C38.2104 15.3083 37.391 14.4883 36.3834 14.4883H26.5386C25.531 14.4883 24.7109 15.3083 24.7109 16.3154C24.7109 17.323 25.531 18.143 26.5386 18.143Z" fill="white"/>
</svg>
