<svg width="64" height="64" viewBox="0 0 64 64" fill="none" xmlns="http://www.w3.org/2000/svg">
<path fill-rule="evenodd" clip-rule="evenodd" d="M31.59 63.6938C49.0367 63.6938 63.1801 49.5504 63.1801 32.1037C63.1801 14.657 49.0367 0.513672 31.59 0.513672C14.1433 0.513672 0 14.657 0 32.1037C0 34.2672 0.217477 36.3798 0.631762 38.421H32.2481V45.1338L2.80342 45.1326C7.76578 56.0793 18.7887 63.6938 31.59 63.6938ZM36.3894 19.9165C37.7655 18.5627 38.627 16.672 38.627 14.591C38.627 10.4514 35.2593 7.09493 31.1309 7.09493V10.4514C33.4133 10.4514 35.2705 12.3086 35.2705 14.591C35.2705 16.8734 33.4133 18.7307 31.1309 18.7307V22.0871C36.1543 22.0871 40.0813 26.1707 40.0813 31.1943V36.1841H43.4378V31.1831C43.4379 26.2043 40.5737 21.9081 36.3894 19.9165ZM30.0795 25.4324H26.656V25.4436C24.3736 25.4436 22.5163 23.2507 22.5163 20.9683C22.5163 18.686 24.3736 17.0525 26.656 17.0525V13.6961C22.5275 13.6961 19.1599 17.0525 19.1599 21.1922C19.1599 25.3318 22.5163 28.6882 26.656 28.6882V28.677H30.0795C32.4178 28.677 34.4877 30.3329 34.4877 33.2754V36.1842H37.8441V32.5033C37.844 28.4755 34.2639 25.4324 30.0795 25.4324ZM37.8392 38.421H34.4828V45.1338H37.8392V38.421ZM40.0768 38.421H43.4333V45.1338H40.0768V38.421ZM32.9063 50.5322V53.1647H30.2738V50.5322H32.9063ZM42.1201 50.5322H39.4876V53.1647H42.1201V50.5322ZM44.7526 47.8997H47.3851V50.5322H44.7526V47.8997ZM38.1713 54.481H35.5388V57.1135H38.1713V54.481ZM32.9063 57.1135V59.746H30.2738V57.1135H32.9063ZM46.0688 57.1135V54.481H43.4363V57.1135H46.0688Z" fill="black"/>
</svg>
