<svg width="64" height="64" viewBox="0 0 64 64" fill="none" xmlns="http://www.w3.org/2000/svg">
<circle cx="31.59" cy="31.59" r="31.59" fill="black"/>
<path d="M26.2881 49.5761C22.3865 36.7199 30.6304 32.0258 30.6304 32.0258C30.0536 38.886 33.9521 44.2305 33.9521 44.2305C35.3859 43.7979 38.1226 41.7761 38.1226 41.7761C38.1226 44.2305 36.6786 49.573 36.6786 49.573C36.6786 49.573 41.7337 45.6643 43.325 39.1723C44.9143 32.6803 40.2978 26.1627 40.2978 26.1627C40.576 30.7576 39.0215 35.2769 35.976 38.7295C36.1284 38.5536 36.2562 38.3583 36.3544 38.1466C36.9015 37.0523 37.78 34.2082 37.2656 27.6221C36.5415 18.377 28.1647 14.4785 28.1647 14.4785C28.8867 20.1115 26.7217 21.4093 21.6502 32.1015C16.5787 42.7916 26.2881 49.5761 26.2881 49.5761Z" fill="white"/>
</svg>
