<svg width="64" height="64" viewBox="0 0 64 64" fill="none" xmlns="http://www.w3.org/2000/svg">
<circle cx="32.4104" cy="32.0949" r="31.59" fill="black"/>
<path d="M27.2225 36.9321C25.5182 35.7329 23.3157 34.6077 22.2486 32.7217C21.768 34.4294 21.722 36.1864 22.3456 37.9378C23.2613 40.5092 25.1149 42.0196 27.1985 43.6102C29.5098 45.3747 31.9895 47.3034 33.2492 51.0037C34.797 47.5652 34.4285 43.9917 32.0393 41.0388C30.69 39.371 28.9638 38.1574 27.2225 36.9321Z" fill="white"/>
<path d="M32.6169 22.0192C33.5035 22.8177 34.4649 23.5376 35.483 24.2998C37.054 25.476 38.6718 26.688 40.0854 28.2602C40.8445 25.7036 40.3715 23.126 38.6067 20.9449C37.4542 19.5203 35.8438 18.6541 34.4923 17.437C32.8973 16.0005 31.3879 14.2613 30.7902 12.3516C30.1918 13.678 29.2805 16.6071 29.8539 19.2561C30.6565 20.1615 31.5777 21.0832 32.6169 22.0192Z" fill="white"/>
<path d="M31.0573 34.486C34.7921 37.3373 38.7884 40.4539 40.8231 46.4367C43.3286 40.8805 42.7352 35.1054 38.8745 30.3337C36.6955 27.6405 33.6509 26.0031 31.0961 23.702C28.0807 20.9862 25.2272 17.6984 24.0973 14.0879C22.4647 17.7069 21.8672 21.5247 23.2209 25.326C24.6995 29.4786 27.6927 31.9175 31.0573 34.486Z" fill="white"/>
<rect x="13.9844" y="46.5742" width="46.7121" height="3.94876" transform="rotate(-45 13.9844 46.5742)" fill="#A1BE07"/>
<rect width="46.7121" height="3.94876" transform="matrix(-0.707107 -0.707107 -0.707107 0.707107 49.5195 46.5742)" fill="#A1BE07"/>
</svg>
