<svg width="64" height="64" viewBox="0 0 64 64" fill="none" xmlns="http://www.w3.org/2000/svg">
<path fill-rule="evenodd" clip-rule="evenodd" d="M32.4104 63.1889C49.8571 63.1889 64.0004 49.0455 64.0004 31.5988C64.0004 20.5315 58.3092 10.7935 49.6937 5.15179V18.0474C49.6937 18.2034 49.8104 18.3298 49.9543 18.3298H51.7997C51.8944 18.3294 51.9851 18.3707 52.0512 18.4442C52.1858 18.594 52.1828 18.8336 52.0447 18.9794L47.791 23.5884C47.725 23.661 47.6348 23.7017 47.5408 23.7014C47.4486 23.7002 47.3605 23.6596 47.2958 23.5884L43.0421 18.9794C42.973 18.9064 42.9347 18.8056 42.9365 18.701C42.9402 18.4921 43.0995 18.3259 43.2923 18.3298H45.1429C45.2868 18.3298 45.4035 18.2034 45.4035 18.0474V2.79606C42.9101 1.66949 40.2443 0.857189 37.4565 0.409646C37.5272 0.529976 37.5678 0.670157 37.5678 0.819806V27.3809C37.5678 27.7151 37.8387 27.9861 38.173 27.9861H42.4576C42.6775 27.9853 42.8883 28.0737 43.0417 28.2313C43.3541 28.5522 43.3473 29.0656 43.0265 29.378L33.15 39.2545C32.9968 39.4101 32.7874 39.4973 32.5691 39.4966C32.3549 39.4941 32.1504 39.4071 32.0002 39.2545L22.1237 29.378C21.9631 29.2216 21.8743 29.0057 21.8785 28.7815C21.887 28.3338 22.2569 27.9777 22.7047 27.9861H27.0014C27.3356 27.9861 27.6066 27.7151 27.6066 27.3809V0.819806C27.6066 0.6443 27.6623 0.481817 27.7571 0.349104C25.3146 0.709696 22.963 1.34985 20.7361 2.23601V18.0474C20.7361 18.2034 20.8528 18.3298 20.9968 18.3298H22.8421C22.9368 18.3294 23.0276 18.3707 23.0937 18.4442C23.2282 18.594 23.2253 18.8336 23.0871 18.9794L18.8335 23.5884C18.7675 23.661 18.6773 23.7017 18.5833 23.7014C18.491 23.7002 18.4029 23.6596 18.3382 23.5884L14.0846 18.9794C14.0154 18.9064 13.9772 18.8056 13.979 18.701C13.9826 18.4921 14.1419 18.3259 14.3348 18.3298H16.1853C16.3293 18.3298 16.446 18.2034 16.446 18.0474V4.33364C7.09717 9.8194 0.820312 19.9761 0.820312 31.5988C0.820312 49.0455 14.9637 63.1889 32.4104 63.1889ZM32.33 0.00888914H32.4907C32.4639 0.00882243 32.4372 0.00878906 32.4104 0.00878906C32.3836 0.00878906 32.3568 0.00882243 32.33 0.00888914Z" fill="black"/>
</svg>
