<svg width="64" height="64" viewBox="0 0 64 64" fill="none" xmlns="http://www.w3.org/2000/svg">
<circle cx="32.4104" cy="31.59" r="31.59" fill="black"/>
<path d="M30.9123 15.6295C31.8268 14.0694 32.7951 14.1232 33.7097 15.6295C37.9059 21.8699 44.2539 31.2306 44.2539 35.911C44.2539 39.1926 42.909 42.2052 40.7571 44.3571C38.6052 46.509 35.5926 47.8539 32.311 47.8539C29.0294 47.8539 26.0167 46.509 23.8648 44.3571C21.713 42.2052 20.368 39.1926 20.368 35.911C20.368 31.1768 26.7161 21.8699 30.9123 15.6295ZM23.7035 41.2369C24.5642 42.6356 25.8015 43.8729 27.3079 44.7337C28.0072 45.1102 28.868 44.8951 29.2445 44.1957C29.6749 43.4425 29.4059 42.5818 28.7066 42.2052C27.6306 41.6134 26.7699 40.7527 26.1243 39.7305C25.4788 38.7084 25.1022 37.5249 25.0484 36.2875C24.9946 35.4806 24.349 34.8888 23.5421 34.9426C22.7351 34.9964 22.1433 35.642 22.1971 36.4489C22.3047 38.1704 22.8427 39.7843 23.7035 41.2369Z" fill="white"/>
</svg>
