<svg width="64" height="64" viewBox="0 0 64 64" fill="none" xmlns="http://www.w3.org/2000/svg">
<circle cx="31.59" cy="32.0949" r="31.59" fill="black"/>
<path d="M26.7108 36.9321C25.0065 35.7329 22.804 34.6077 21.7369 32.7217C21.2563 34.4294 21.2103 36.1864 21.8339 37.9378C22.7495 40.5092 24.6031 42.0196 26.6868 43.6102C28.9981 45.3747 31.4778 47.3034 32.7374 51.0037C34.2853 47.5652 33.9168 43.9917 31.5276 41.0388C30.1783 39.371 28.4521 38.1574 26.7108 36.9321Z" fill="white"/>
<path d="M32.1051 22.0192C32.9917 22.8177 33.9532 23.5376 34.9713 24.2998C36.5423 25.476 38.1601 26.688 39.5737 28.2602C40.3327 25.7036 39.8598 23.126 38.095 20.9449C36.9425 19.5203 35.332 18.6541 33.9806 17.437C32.3856 16.0005 30.8762 14.2613 30.2785 12.3516C29.6801 13.678 28.7688 16.6071 29.3422 19.2561C30.1448 20.1615 31.066 21.0832 32.1051 22.0192Z" fill="white"/>
<path d="M30.5456 34.486C34.2804 37.3373 38.2767 40.4539 40.3114 46.4367C42.8169 40.8805 42.2235 35.1054 38.3627 30.3337C36.1838 27.6405 33.1392 26.0031 30.5843 23.702C27.569 20.9862 24.7155 17.6984 23.5856 14.0879C21.953 17.7069 21.3555 21.5247 22.7091 25.326C24.1878 29.4786 27.181 31.9175 30.5456 34.486Z" fill="white"/>
</svg>
