<svg width="36" height="36" viewBox="0 0 36 36" fill="none" xmlns="http://www.w3.org/2000/svg">
<g clip-path="url(#clip0_420_1470)">
<path d="M35.9991 24.3643C35.9991 19.897 33.4362 15.9101 29.5979 13.9707C29.4787 22.5362 22.5342 29.4807 13.9688 29.5999C15.9081 33.4382 19.8951 36.001 24.3624 36.001C26.4569 36.001 28.4938 35.4432 30.2834 34.3833L35.9483 35.9502L34.3813 30.2854C35.4413 28.4957 35.9991 26.4589 35.9991 24.3643Z" fill="white"/>
<path d="M27.4922 13.7461C27.4922 6.16635 21.3258 0 13.7461 0C6.16635 0 0 6.16635 0 13.7461C0 16.2164 0.657532 18.6216 1.90613 20.7331L0.0505371 27.4414L6.75906 25.5861C8.87064 26.8347 11.2758 27.4922 13.7461 27.4922C21.3258 27.4922 27.4922 21.3258 27.4922 13.7461ZM11.6367 10.5469H9.52734C9.52734 8.22052 11.4197 6.32812 13.7461 6.32812C16.0724 6.32812 17.9648 8.22052 17.9648 10.5469C17.9648 11.7276 17.465 12.8625 16.5929 13.6601L14.8008 15.3004V16.9453H12.6914V14.3715L15.1688 12.1039C15.6116 11.6988 15.8555 11.1459 15.8555 10.5469C15.8555 9.3837 14.9093 8.4375 13.7461 8.4375C12.5829 8.4375 11.6367 9.3837 11.6367 10.5469ZM12.6914 19.0547H14.8008V21.1641H12.6914V19.0547Z" fill="white"/>
</g>
<defs>
<clipPath id="clip0_420_1470">
<rect width="36" height="36" fill="white"/>
</clipPath>
</defs>
</svg>
