<svg width="60" height="60" viewBox="0 0 60 60" fill="none" xmlns="http://www.w3.org/2000/svg">
<circle cx="30" cy="30" r="30" fill="#D9D9D9"/>
<g clip-path="url(#clip0_263_8625)">
<path d="M47.9991 36.3643C47.9991 31.897 45.4362 27.9101 41.5979 25.9707C41.4787 34.5362 34.5342 41.4807 25.9688 41.5999C27.9081 45.4382 31.8951 48.001 36.3624 48.001C38.4569 48.001 40.4938 47.4432 42.2834 46.3833L47.9483 47.9502L46.3813 42.2854C47.4413 40.4957 47.9991 38.4589 47.9991 36.3643Z" fill="black"/>
<path d="M39.4922 25.7461C39.4922 18.1664 33.3258 12 25.7461 12C18.1664 12 12 18.1664 12 25.7461C12 28.2164 12.6575 30.6216 13.9061 32.7331L12.0505 39.4414L18.7591 37.5861C20.8706 38.8347 23.2758 39.4922 25.7461 39.4922C33.3258 39.4922 39.4922 33.3258 39.4922 25.7461ZM23.6367 22.5469H21.5273C21.5273 20.2205 23.4197 18.3281 25.7461 18.3281C28.0724 18.3281 29.9648 20.2205 29.9648 22.5469C29.9648 23.7276 29.465 24.8625 28.5929 25.6601L26.8008 27.3004V28.9453H24.6914V26.3715L27.1688 24.1039C27.6116 23.6988 27.8555 23.1459 27.8555 22.5469C27.8555 21.3837 26.9093 20.4375 25.7461 20.4375C24.5829 20.4375 23.6367 21.3837 23.6367 22.5469ZM24.6914 31.0547H26.8008V33.1641H24.6914V31.0547Z" fill="black"/>
</g>
<defs>
<clipPath id="clip0_263_8625">
<rect width="36" height="36" fill="white" transform="translate(12 12)"/>
</clipPath>
</defs>
</svg>
