<svg width="24" height="24" viewBox="0 0 24 24" fill="none" xmlns="http://www.w3.org/2000/svg">
<path d="M6.96619 0.866667C3.60243 0.866667 0.866667 3.60243 0.866667 6.96619V17.0338C0.866667 20.3976 3.60243 23.1333 6.96619 23.1333H17.0338C20.3976 23.1333 23.1333 20.3976 23.1333 17.0338V6.96619C23.1333 3.60243 20.3976 0.866667 17.0338 0.866667H6.96619ZM1.83648 6.96619C1.83648 4.13804 4.13804 1.83648 6.96619 1.83648H17.0338C19.862 1.83648 22.1635 4.13804 22.1635 6.96619V17.0338C22.1635 19.862 19.862 22.1635 17.0338 22.1635H6.96619C4.13804 22.1635 1.83648 19.862 1.83648 17.0338V6.96619Z" fill="black" stroke="black" stroke-width="0.266667" stroke-miterlimit="10"/>
<path d="M6.34323 12.0005C6.34323 15.1194 8.88082 17.657 12.0005 17.657C15.1194 17.657 17.657 15.1201 17.657 12.0005C17.657 8.88083 15.1202 6.34323 12.0005 6.34323C8.8808 6.34323 6.34323 8.88152 6.34323 12.0005ZM7.31304 12.0005C7.31304 9.41622 9.41622 7.31304 12.0005 7.31304C14.5847 7.31304 16.6872 9.41619 16.6872 12.0005C16.6872 14.5847 14.5847 16.6872 12.0005 16.6872C9.41619 16.6872 7.31304 14.5847 7.31304 12.0005Z" fill="black" stroke="black" stroke-width="0.266667"/>
<path d="M19.1802 7.26493L19.1805 7.2646C19.4821 6.96231 19.6487 6.55998 19.6487 6.13366C19.6487 5.25108 18.9313 4.53366 18.0487 4.53366C17.1661 4.53366 16.4487 5.25108 16.4487 6.13366C16.4487 7.01624 17.1661 7.73366 18.0487 7.73366C18.4752 7.73366 18.8767 7.56696 19.1802 7.26493ZM17.3757 6.13366C17.3757 5.76287 17.6779 5.46069 18.0487 5.46069C18.4195 5.46069 18.7217 5.76287 18.7217 6.13366C18.7217 6.3134 18.652 6.48161 18.525 6.60927C18.3966 6.73695 18.2278 6.80663 18.0487 6.80663C17.6779 6.80663 17.3757 6.50445 17.3757 6.13366Z" fill="black" stroke="black" stroke-width="0.266667"/>
</svg>
