<svg width="33" height="33" viewBox="0 0 33 33" fill="none" xmlns="http://www.w3.org/2000/svg">
<path d="M9.95687 1.82418C5.47186 1.82418 1.82418 5.47186 1.82418 9.95687V23.3804C1.82418 27.8654 5.47186 31.5131 9.95687 31.5131H23.3804C27.8654 31.5131 31.5131 27.8654 31.5131 23.3804V9.95687C31.5131 5.47186 27.8654 1.82418 23.3804 1.82418H9.95687ZM3.11726 9.95687C3.11726 6.18601 6.18601 3.11726 9.95687 3.11726H23.3804C27.1512 3.11726 30.22 6.18601 30.22 9.95687V23.3804C30.22 27.1512 27.1512 30.22 23.3804 30.22H9.95687C6.18601 30.22 3.11726 27.1512 3.11726 23.3804V9.95687Z" fill="white" stroke="white" stroke-width="0.355556" stroke-miterlimit="10"/>
<path d="M9.12691 16.6699C9.12691 20.8285 12.5104 24.2119 16.6699 24.2119C20.8285 24.2119 24.2119 20.8295 24.2119 16.6699C24.2119 12.5104 20.8295 9.12691 16.6699 9.12691C12.5103 9.12691 9.12691 12.5113 9.12691 16.6699ZM10.42 16.6699C10.42 13.2242 13.2242 10.42 16.6699 10.42C20.1155 10.42 22.9189 13.2242 22.9189 16.6699C22.9189 20.1156 20.1156 22.9189 16.6699 22.9189C13.2242 22.9189 10.42 20.1155 10.42 16.6699Z" fill="white" stroke="white" stroke-width="0.355556"/>
<path d="M26.2415 10.3565L26.242 10.3561C26.6441 9.953 26.8662 9.41656 26.8662 8.84813C26.8662 7.67136 25.9097 6.7148 24.7329 6.7148C23.5561 6.7148 22.5996 7.67136 22.5996 8.84813C22.5996 10.0249 23.5561 10.9815 24.7329 10.9815C25.3015 10.9815 25.8369 10.7592 26.2415 10.3565ZM23.8356 8.84813C23.8356 8.35375 24.2385 7.95084 24.7329 7.95084C25.2273 7.95084 25.6302 8.35375 25.6302 8.84813C25.6302 9.08779 25.5373 9.31207 25.3679 9.48228C25.1968 9.65252 24.9716 9.74543 24.7329 9.74543C24.2385 9.74543 23.8356 9.34252 23.8356 8.84813Z" fill="white" stroke="white" stroke-width="0.355556"/>
</svg>
