<svg width="40" height="40" viewBox="0 0 40 40" fill="none" xmlns="http://www.w3.org/2000/svg">
<path d="M20.262 3.37812C19.9195 2.87396 19.0785 2.87396 18.7383 3.37812C18.3006 4.03032 8 19.3717 8 25.4525C8 31.8183 13.1613 37 19.4998 37C25.8393 37 31 31.818 31 25.4525C31.0007 19.3717 20.6994 4.02867 20.262 3.37812ZM19.5002 35.1525C14.1737 35.1525 9.84051 30.8041 9.84051 25.4525C9.84051 21.2333 16.2309 10.5745 19.5002 5.56423C22.7704 10.5745 29.1605 21.2297 29.1605 25.4525C29.1605 30.8041 24.826 35.1525 19.5002 35.1525ZM20.4199 32.3811C20.4199 32.8916 20.0065 33.305 19.5002 33.305C15.187 33.305 11.6807 29.7829 11.6807 25.4529C11.6807 24.9441 12.0948 24.529 12.6008 24.529C13.1068 24.529 13.5206 24.9441 13.5206 25.4529C13.5206 28.7657 16.203 31.4576 19.5005 31.4576C20.0065 31.4572 20.4199 31.8687 20.4199 32.3811Z" fill="white"/>
</svg>
