<svg width="40" height="40" viewBox="0 0 40 40" fill="none" xmlns="http://www.w3.org/2000/svg">
<circle cx="20" cy="20" r="20" fill="#D9D9D9"/>
<g clip-path="url(#clip0_837_6239)">
<path d="M32 13.4758V20.7408C32 20.7408 30.4451 21.0472 30.1248 21.0875C29.8055 21.1277 28.802 21.4517 28.0748 20.7527C26.9533 19.6778 22.9686 15.7151 22.9686 15.7151C22.9686 15.7151 22.2816 15.0409 21.1784 15.6236C20.1658 16.1573 18.6647 16.9395 18.0377 17.2441C16.8524 17.875 15.8701 16.874 15.8701 16.1116C15.8701 15.5202 16.2391 15.1188 16.7666 14.8236C18.1963 13.9569 21.2096 12.2655 22.4647 11.5987C23.2276 11.1929 23.7772 11.1582 24.8246 12.0405C26.1145 13.1253 27.2624 14.1142 27.2624 14.1142C27.2624 14.1142 27.6369 14.4267 28.234 14.3008C29.7002 13.9908 32 13.4758 32 13.4758ZM16.14 25.7857C16.3329 25.2899 16.2684 24.7354 15.8985 24.355C15.5661 24.0147 15.0807 23.9251 14.6179 24.0311C14.7474 23.5721 14.6759 23.0835 14.3417 22.7388C14.0082 22.3994 13.5238 22.3079 13.061 22.4149C13.1895 21.9566 13.1182 21.4681 12.7838 21.1243C12.2601 20.5872 11.3544 20.6102 10.7593 21.1774C10.1675 21.7454 9.7883 22.7744 10.3166 23.3801C10.8439 23.9827 11.4499 23.6161 11.9119 23.5108C11.7834 23.9691 11.3983 24.3954 11.8725 24.9954C12.3463 25.5956 13.0058 25.2314 13.4683 25.1271C13.3393 25.5837 12.9711 26.0529 13.4271 26.6091C13.8872 27.167 14.6408 26.8698 15.1386 26.7152C14.9465 27.209 14.5353 27.7414 15.0636 28.338C15.591 28.9389 16.8099 28.6609 17.4052 28.0928C17.999 27.5248 18.056 26.6247 17.5338 26.0859C17.1732 25.7162 16.6357 25.6302 16.14 25.7857ZM27.0036 22.006C22.6997 17.702 24.7241 19.7273 22.4079 17.4061C22.4079 17.4061 21.7118 16.7131 20.7943 17.1157C20.1503 17.3979 19.3211 17.7825 18.6972 18.0762C18.0117 18.4357 17.5183 18.5469 17.2866 18.5454C15.9612 18.5367 14.8859 17.4714 14.8859 16.1474C14.8859 15.2884 15.3419 14.5406 16.0221 14.1161C16.9784 13.4543 19.1798 12.2834 19.1798 12.2834C19.1798 12.2834 18.5092 11.4337 17.0401 11.4337C15.5714 11.4337 12.503 13.4438 12.503 13.4438C12.503 13.4438 11.6325 14.0014 10.3917 13.4992L8 12.6663V20.9796C8 20.9796 8.68292 21.1773 9.29655 21.4279C9.43514 21.0327 9.65876 20.6677 9.96897 20.3663C10.987 19.3966 12.6744 19.3866 13.6006 20.3403C13.8796 20.6302 14.0743 20.976 14.1737 21.3583C14.5469 21.4735 14.8849 21.6776 15.1566 21.9575C15.4364 22.2455 15.6304 22.5933 15.7306 22.9736C16.1034 23.0889 16.4409 23.2938 16.7135 23.5738C17.0205 23.8904 17.225 24.2727 17.3205 24.687C17.7101 24.8005 18.0623 25.0117 18.3459 25.3017C18.9025 25.8734 19.1001 26.6491 18.9804 27.3973C18.9814 27.3973 18.9832 27.3974 18.9841 27.399C18.9932 27.411 19.3289 27.7853 19.5383 27.9964C19.9487 28.4071 20.6187 28.4071 21.0303 27.9964C21.4392 27.5858 21.441 26.9171 21.0303 26.5044C21.0156 26.4897 19.5499 24.9566 19.6679 24.8378C19.7849 24.7197 21.6523 26.6628 21.6871 26.6983C22.0969 27.1082 22.7665 27.1082 23.1782 26.6983C23.5888 26.2877 23.588 25.619 23.1782 25.2073C23.158 25.1881 23.074 25.1076 23.0428 25.0755C23.0428 25.0755 21.1913 23.4262 21.3322 23.2853C21.4749 23.1435 23.7747 25.2896 23.7784 25.2896C24.1918 25.6619 24.8286 25.6592 25.2263 25.2613C25.6132 24.8744 25.6215 24.2623 25.2785 23.8499C25.2712 23.828 23.5258 22.0039 23.662 21.8667C23.8002 21.7277 25.5273 23.506 25.5309 23.5097C25.9398 23.9195 26.6103 23.9195 27.022 23.5097C27.4318 23.0998 27.4318 22.4303 27.022 22.0168C27.0164 22.0133 27.0091 22.0096 27.0036 22.006Z" fill="#030104"/>
</g>
<defs>
<clipPath id="clip0_837_6239">
<rect width="24" height="24" fill="white" transform="translate(8 8)"/>
</clipPath>
</defs>
</svg>
