<svg width="40" height="40" viewBox="0 0 40 40" fill="none" xmlns="http://www.w3.org/2000/svg">
<circle cx="20" cy="20" r="20" fill="#D9D9D9"/>
<path d="M28.866 13.1489C28.7439 12.9903 28.5551 12.8973 28.3549 12.8973H13.1958L12.4943 10.4662C12.4146 10.1901 12.162 10 11.8746 10H7.64495C7.28877 10 7 10.2888 7 10.645C7 11.0011 7.28877 11.2899 7.64495 11.2899H11.3895L14.3282 22.2076C14.6868 22.0693 15.0758 21.9927 15.4825 21.9927H26.4664C26.5728 21.9927 26.6771 22.0017 26.7789 22.0183L28.9784 13.7072C29.0296 13.5138 28.9881 13.3075 28.866 13.1489Z" fill="black"/>
<path d="M25.621 25.8575H15.4829C15.1306 25.8575 14.8441 25.571 14.8441 25.2187C14.8441 24.8665 15.1306 24.5799 15.4829 24.5799H26.4667C26.8229 24.5799 27.1117 24.2912 27.1117 23.935C27.1117 23.5788 26.8229 23.29 26.4667 23.29H15.4829C14.4194 23.29 13.5542 24.1553 13.5542 25.2187C13.5542 25.6974 13.7299 26.1356 14.0196 26.4731C13.6858 26.8256 13.4805 27.3008 13.4805 27.8233C13.4805 28.9071 14.3622 29.7889 15.446 29.7889C16.5298 29.7889 17.4116 28.9071 17.4116 27.8233C17.4116 27.5859 17.3693 27.3583 17.2918 27.1474H23.7751C23.6977 27.3582 23.6555 27.5858 23.6555 27.8231C23.6555 28.9069 24.5372 29.7887 25.621 29.7887C26.7049 29.7887 27.5866 28.9069 27.5866 27.8231C27.5865 26.7393 26.7048 25.8575 25.621 25.8575Z" fill="black"/>
</svg>
