<svg width="40" height="40" viewBox="0 0 40 40" fill="none" xmlns="http://www.w3.org/2000/svg">
<circle cx="20" cy="20" r="20" fill="#D9D9D9"/>
<g clip-path="url(#clip0_837_6227)">
<path d="M26.7202 9.27734H19.3514C18.885 9.27734 18.4371 9.46302 18.1071 9.793L8.51544 19.3829C7.82819 20.0701 7.82819 21.1842 8.51544 21.8723L15.8843 29.2412C16.5715 29.9284 17.6856 29.9284 18.3728 29.2412L27.9645 19.6513C28.2945 19.3204 28.4801 18.8725 28.4801 18.4052V11.0373C28.4801 10.0649 27.6926 9.27734 26.7202 9.27734ZM23.6403 15.4371C22.9117 15.4371 22.3204 14.8458 22.3204 14.1172C22.3204 13.3885 22.9117 12.7972 23.6403 12.7972C24.3689 12.7972 24.9603 13.3885 24.9603 14.1172C24.9603 14.8458 24.3689 15.4371 23.6403 15.4371Z" fill="black"/>
<path d="M30.2431 11.0371L30.2422 19.2287C30.2422 19.6344 30.0811 20.0242 29.7934 20.3111L20.0469 30.0576L20.1965 30.2072C20.8837 30.8944 21.9978 30.8944 22.685 30.2072L31.4864 21.4075C31.8173 21.0775 32.003 20.6296 32.003 20.1632V12.797C32.003 11.8247 31.2154 11.0371 30.2431 11.0371Z" fill="black"/>
</g>
<defs>
<clipPath id="clip0_837_6227">
<rect width="24" height="24" fill="white" transform="translate(8 8)"/>
</clipPath>
</defs>
</svg>
