<svg width="40" height="40" viewBox="0 0 40 40" fill="none" xmlns="http://www.w3.org/2000/svg">
<circle cx="20" cy="20" r="20" fill="#D9D9D9"/>
<path d="M23.2123 13.9638L20.7304 15.2979C20.614 15.3609 20.5537 15.4941 20.5825 15.6239C20.6112 15.7538 20.7223 15.8485 20.854 15.8554L27.5703 16.2259H27.588C27.7101 16.2251 27.8186 16.1484 27.8613 16.0333L29.8315 10.8453C29.8775 10.7212 29.8362 10.581 29.7302 10.5026C29.6243 10.424 29.4796 10.426 29.3758 10.5072L28.1437 11.4647L25.1795 7.12746C25.124 7.04686 25.0326 6.99922 24.9353 7.00001H16.4341C16.3378 7.00021 16.2478 7.04785 16.193 7.12746L13.3582 11.2277C13.3112 11.2914 13.2941 11.3726 13.3112 11.45C13.3258 11.5288 13.3714 11.5983 13.4376 11.6428L17.628 14.4384C17.7574 14.5248 17.9312 14.495 18.025 14.3702L20.8743 10.5606L23.2123 13.9638Z" fill="#07090A"/>
<path d="M17.7263 23.4429H12.1682L14.6648 19.6541L16.4051 21.4193C16.5026 21.5254 16.66 21.5482 16.7828 21.4741C16.9059 21.4002 16.961 21.2492 16.9154 21.1119L15.2206 14.7766C15.184 14.6386 15.0581 14.5441 14.917 14.549H7.30903C7.17012 14.5467 7.04728 14.64 7.01067 14.7755C6.97426 14.9113 7.03324 15.0548 7.15405 15.1242L10.0425 16.8372L7.41829 21.0718C7.36419 21.1669 7.36419 21.2841 7.41829 21.3792L10.0637 25.8262L12.2505 29.498C12.306 29.5903 12.4051 29.6463 12.5117 29.6457H17.7266C17.8072 29.6457 17.8845 29.6134 17.9414 29.5557C17.9984 29.498 18.0303 29.4198 18.0303 29.3382V23.7505C18.0303 23.669 17.9984 23.5907 17.9414 23.533C17.8845 23.4754 17.8069 23.4429 17.7263 23.4429Z" fill="#07090A"/>
<path d="M32.9811 21.8478L30.74 16.413C30.7064 16.3321 30.6417 16.2701 30.5617 16.242C30.4809 16.2133 30.3919 16.2225 30.3179 16.267L25.7704 18.9999C25.64 19.0786 25.5863 19.2466 25.6456 19.3914L27.5657 24.1275L23.5323 24.2828L23.47 20.9534C23.4672 20.822 23.3854 20.7068 23.266 20.6656C23.1464 20.6244 23.015 20.6664 22.938 20.7702L18.8869 26.2364C18.8092 26.3362 18.7985 26.4758 18.86 26.5873L22.0997 32.8361C22.1518 32.9359 22.2525 32.9979 22.3614 32.9977C22.3861 33.0006 22.4109 33.0006 22.4356 32.9977C22.5704 32.9613 22.6629 32.8324 22.6585 32.687V29.6001H27.7114C27.8071 29.5995 27.8967 29.551 27.952 29.4695L31.3553 24.4849L32.9423 22.1494C33.0044 22.0628 33.0193 21.9485 32.9811 21.8478Z" fill="#07090A"/>
</svg>
