<svg width="225" height="225" viewBox="0 0 225 225" fill="none" xmlns="http://www.w3.org/2000/svg">
<path d="M112.5 225C174.632 225 225 174.632 225 112.5C225 50.368 174.632 0 112.5 0C50.368 0 0 50.368 0 112.5C0 174.632 50.368 225 112.5 225Z" fill="black"/>
<path d="M19.0011 119.51L19.1411 125.84L14.7611 125.94L14.3711 108.7L18.7611 108.6L18.9011 114.93L36.1411 114.55L36.2411 119.12L19.0011 119.51Z" fill="white"/>
<path d="M38.7701 95.8601C38.433 97.3449 37.7929 98.7441 36.8901 99.9701C36.0342 101.112 34.9644 102.077 33.7401 102.81C32.5108 103.533 31.152 104.009 29.7401 104.21C28.2629 104.421 26.7591 104.346 25.3101 103.99C23.8705 103.651 22.5115 103.033 21.3101 102.17C20.148 101.344 19.1565 100.302 18.3901 99.1001C17.6114 97.8856 17.0907 96.5241 16.8601 95.1001C16.6016 93.5942 16.6629 92.0507 17.0401 90.5701C17.3771 89.0853 18.0172 87.6861 18.9201 86.4601C19.7759 85.318 20.8458 84.3535 22.07 83.6201C23.2991 82.8965 24.658 82.4208 26.0701 82.2201C27.5439 82.0098 29.0444 82.0845 30.4901 82.4401C31.9297 82.7791 33.2887 83.3975 34.4901 84.2601C35.6499 85.0883 36.6409 86.1303 37.4101 87.3301C38.1887 88.5445 38.7095 89.906 38.9401 91.3301C39.2018 92.8353 39.1439 94.3787 38.7701 95.8601ZM34.5201 94.7801C34.7308 93.9357 34.758 93.0559 34.6 92.2001C34.4342 91.3833 34.093 90.6122 33.6 89.9401C33.1104 89.253 32.5006 88.6602 31.8001 88.1901C31.0435 87.6911 30.2035 87.3321 29.3201 87.1301C28.4507 86.9138 27.549 86.8595 26.6601 86.9701C25.8147 87.0631 24.9959 87.3213 24.2501 87.7301C23.5184 88.1428 22.8733 88.6929 22.35 89.3501C21.8098 90.0335 21.4304 90.8299 21.2401 91.6801C21.0251 92.5273 20.9978 93.4112 21.1601 94.2701C21.3239 95.0845 21.6654 95.8527 22.1601 96.5201C22.6468 97.2096 23.2571 97.803 23.9601 98.2701C24.7166 98.769 25.5566 99.1281 26.4401 99.3301C27.3095 99.5447 28.2103 99.6022 29.1 99.5001C29.945 99.399 30.763 99.1377 31.5101 98.7301C32.2375 98.3238 32.8793 97.7805 33.4001 97.1301C33.933 96.4372 34.3053 95.6345 34.4901 94.7801H34.5201Z" fill="white"/>
<path d="M41.3289 67.8097C41.3289 68.2097 41.3289 68.6297 41.2489 69.0897C41.1689 69.5497 41.1389 70.0097 41.0389 70.4897C40.9426 70.9828 40.8191 71.4702 40.6689 71.9496C40.505 72.4485 40.2941 72.9307 40.0389 73.3896C39.5727 74.2323 38.9752 74.9952 38.2689 75.6497C37.6288 76.2405 36.8629 76.6782 36.0289 76.9297C35.1611 77.1786 34.248 77.2265 33.3589 77.0696C32.2734 76.8729 31.2309 76.4871 30.2789 75.9297L23.3789 72.0497L25.6289 68.0497L31.3089 71.2397C32.2302 71.8424 33.3194 72.1366 34.4189 72.0797C34.8966 71.9938 35.3463 71.7934 35.7295 71.4956C36.1126 71.1977 36.4179 70.8114 36.6189 70.3697C37.0634 69.5999 37.3776 68.7619 37.5489 67.8896C37.7106 67.1778 37.7411 66.4424 37.6389 65.7196L29.4889 61.1396L31.7289 57.1396L50.5889 67.7296L48.3489 71.7296L41.3289 67.8097Z" fill="white"/>
<path d="M37.4883 49.4403L40.6783 46.1603L47.4583 52.7603L46.5683 40.1104L50.4283 36.1104L51.0983 48.5904L66.1983 50.9203L62.3683 54.8704L51.2583 53.0703L51.4483 56.6003L56.1883 61.2203L52.9883 64.5003L37.4883 49.4403Z" fill="white"/>
<path d="M83.2484 41.0698L79.3284 43.3298L72.2384 31.0498L71.4484 47.8798L67.7184 50.0398L56.8984 31.2998L60.8084 29.0398L67.9084 41.3298L68.7484 24.4598L72.4284 22.3398L83.2484 41.0698Z" fill="white"/>
<path d="M92.6719 15.6398L97.2219 15.1098L98.2219 23.6199L106.612 22.6199L105.612 14.1198L110.162 13.5898L112.662 35.0798L108.112 35.6098L107.112 26.9798L98.7219 27.9798L99.7219 36.5998L95.1719 37.1298L92.6719 15.6398Z" fill="white"/>
<path d="M127.411 14.9697L131.571 15.7197L136.481 38.7197L131.771 37.8698L130.771 32.7497L122.101 31.1897L119.371 35.6297L114.781 34.7997L127.411 14.9697ZM129.901 28.3297L128.421 20.9297L124.421 27.3497L129.901 28.3297Z" fill="white"/>
<path d="M158.22 25.2305L162.04 27.7505L156.84 35.6505L169.09 32.3905L173.71 35.4405L161.59 38.4405L162.14 53.7205L157.54 50.7205L157.22 39.4805L153.78 40.3205L150.14 45.8505L146.32 43.3305L158.22 25.2305Z" fill="white"/>
<path d="M184.49 46.2002L187.25 49.4002L176.57 70.4002L173.45 66.7702L175.88 62.1602L170.13 55.4902L165.21 57.2202L162.16 53.6802L184.49 46.2002ZM178.01 58.1402L181.51 51.4602L174.4 53.9502L178.01 58.1402Z" fill="white"/>
<path d="M196.861 63.0596L200.581 70.7096C201.104 71.7218 201.443 72.8189 201.581 73.9496C201.695 74.9357 201.597 75.9349 201.291 76.8795C200.978 77.7931 200.478 78.6311 199.821 79.3396C199.112 80.1077 198.26 80.7294 197.311 81.1696C196.301 81.6911 195.188 81.9846 194.051 82.0296C193.047 82.059 192.049 81.8607 191.131 81.4496C190.2 81.0279 189.36 80.4264 188.661 79.6796C187.907 78.8594 187.277 77.9329 186.791 76.9296L185.271 73.7996L179.441 76.6396L177.441 72.5196L196.861 63.0596ZM190.641 75.2096C190.823 75.6601 191.094 76.0694 191.438 76.413C191.782 76.7566 192.191 77.0275 192.641 77.2096C193.06 77.3536 193.504 77.411 193.946 77.3784C194.388 77.3457 194.818 77.2237 195.211 77.0196C195.639 76.8443 196.02 76.5726 196.326 76.2256C196.631 75.8787 196.852 75.466 196.971 75.0196C197.163 74.0604 197.007 73.0643 196.531 72.2096L194.981 69.0296L189.031 71.9196L190.641 75.2096Z" fill="white"/>
<path d="M203.13 90.7698L201.74 84.5898L206.02 83.5898L209.81 100.41L205.53 101.41L204.14 95.2298L187.32 99.0198L186.32 94.5498L203.13 90.7698Z" fill="white"/>
<path d="M210.571 108.14L210.321 123.81L206.091 123.74L206.261 112.59L201.881 112.52L201.721 122.34L197.491 122.27L197.641 112.46L193.101 112.39L192.921 123.69L188.691 123.62L188.941 107.8L210.571 108.14Z" fill="white"/>
<path d="M112.489 49C95.6293 49.0185 79.4652 55.7221 67.5409 67.6408C55.6165 79.5595 48.9054 95.7205 48.8789 112.58C48.8789 128.96 61.5689 154.58 86.5789 188.77C89.0625 192.174 92.1923 195.055 95.7896 197.248C99.3868 199.442 103.381 200.906 107.544 201.556C111.707 202.206 115.957 202.03 120.052 201.037C124.147 200.044 128.006 198.254 131.409 195.77C134.091 193.814 136.453 191.452 138.409 188.77C163.409 154.59 176.109 128.96 176.109 112.58C176.082 95.7187 169.37 79.5562 157.443 67.6372C145.517 55.7183 129.35 49.0159 112.489 49ZM112.489 138C105.728 138 99.2431 135.315 94.4612 130.535C89.6793 125.755 86.9915 119.271 86.9889 112.51C86.9889 105.747 89.6755 99.2609 94.4577 94.4788C99.2398 89.6966 105.726 87.01 112.489 87.01C119.25 87.0126 125.734 89.7004 130.514 94.4823C135.294 99.2642 137.979 105.749 137.979 112.51C137.968 119.263 135.278 125.737 130.499 130.508C125.72 135.28 119.242 137.96 112.489 137.96V138Z" fill="white"/>
</svg>
