<svg width="40" height="40" viewBox="0 0 40 40" fill="none" xmlns="http://www.w3.org/2000/svg">
<circle cx="20" cy="20" r="20" fill="#D9D9D9"/>
<path d="M34.588 21.2612C34.6578 20.8542 35.0867 17.9732 32.9023 16.0908C31.9138 15.2309 30.6457 14.7622 29.3364 14.7726C27.8897 14.7819 26.5059 15.3654 25.4885 16.3952C24.4712 17.4249 23.9036 18.8167 23.9102 20.265C23.9054 21.5761 24.3668 22.8461 25.2119 23.8476C26.0642 24.8366 27.2395 25.4904 28.5284 25.6926C29.4613 25.8472 30.4186 25.7498 31.3013 25.4104C32.0482 25.121 32.723 24.672 33.2788 24.0948L31.5333 22.5095C31.2612 22.8122 30.9285 23.0542 30.5569 23.2197C30.1853 23.3853 29.783 23.4708 29.3763 23.4706C28.7279 23.47 28.0985 23.2521 27.5882 22.8517C27.078 22.4513 26.7163 21.8913 26.5609 21.2612H34.5954H34.588ZM26.5086 19.4462C26.6234 18.7698 26.9735 18.1559 27.497 17.7132C28.0205 17.2704 28.6835 17.0273 29.3688 17.027C30.055 17.0257 30.7195 17.268 31.2442 17.7109C31.7688 18.1539 32.1195 18.7687 32.234 19.4462H26.5086Z" fill="black"/>
<path d="M14.3205 14.7725H11.5352L16.4052 24.9334C16.5122 25.1763 16.6865 25.3832 16.9076 25.5297C17.1286 25.6762 17.387 25.7561 17.652 25.7598C17.8185 25.7614 17.9836 25.7286 18.1368 25.6633C18.29 25.598 18.4281 25.5016 18.5423 25.3803C18.6563 25.2577 18.7438 25.1128 18.7992 24.9547C18.8545 24.7966 18.8766 24.6287 18.8639 24.4616C18.8517 24.2983 18.8103 24.1385 18.7418 23.9897L14.3205 14.7725Z" fill="black"/>
<path d="M8.02401 14.7725H5.24609L10.1162 24.9334C10.2239 25.1757 10.3984 25.3822 10.6193 25.5285C10.8401 25.6749 11.0981 25.7552 11.363 25.7598C11.5299 25.7616 11.6954 25.7289 11.849 25.6636C12.0026 25.5983 12.1411 25.5018 12.2557 25.3803C12.3695 25.2576 12.4566 25.1126 12.5115 24.9545C12.5664 24.7963 12.588 24.6285 12.5749 24.4616C12.5638 24.2981 12.5223 24.1381 12.4527 23.9897L8.02401 14.7725Z" fill="black"/>
<path d="M19.4345 17.379C19.3824 17.5107 19.3505 17.6496 19.3397 17.7909C19.3264 17.958 19.3482 18.1261 19.4036 18.2843C19.459 18.4425 19.5468 18.5874 19.6614 18.7096C19.7755 18.8311 19.9135 18.9275 20.0668 18.9928C20.22 19.0581 20.3851 19.0909 20.5516 19.0891C20.7878 19.0872 21.0196 19.0247 21.2248 18.9076C21.4299 18.7904 21.6017 18.6226 21.7236 18.42L23.4841 14.7676H20.7012L19.4345 17.379Z" fill="black"/>
</svg>
