<svg width="245" height="59" viewBox="0 0 245 59" fill="none" xmlns="http://www.w3.org/2000/svg">
<path d="M169.639 55.6575C179.369 51.3691 179.807 43.2657 179.938 40.1282C180.323 30.8724 171.667 27.1709 168.789 26.0184C164.34 24.2375 153.942 22.1666 151.194 21.1714C149.766 20.6545 148.608 19.9422 147.624 19.1444C146.948 18.5942 145.294 15.4811 148.471 13.5953C149.558 12.9493 151.735 12.0536 156.286 12.0536C165.506 12.0536 170.618 16.225 172.623 17.6934L179.929 8.8356C176.203 5.55493 172.424 3.48061 168.521 2.23217C164.922 1.08154 161.097 0.493164 157.145 0.493164C152.487 0.493164 142.955 1.24737 137.087 8.72052C134.944 11.4478 130.686 21.2727 139.265 28.2901C144.399 32.4875 151.792 34.279 156.077 35.1746C159.093 35.8051 164.348 37.1302 166.052 38.8519C166.645 39.4507 167.066 40.1405 166.962 41.0938C166.483 45.5041 160.429 46.18 156.668 46.18C153.273 46.18 150.089 45.5497 147.094 44.6469C142.003 43.1122 137.979 39.2011 137.979 39.2011L131.186 48.1513C131.186 48.1513 134.56 52.4325 142.798 55.675C147.04 57.346 159.195 60.26 169.639 55.6575Z" fill="#1E1E1E"/>
<path d="M108.911 1.54527V31.0008C108.911 35.2628 107.575 38.8074 104.939 41.5346C102.335 44.2323 99.0633 45.6133 95.2155 45.6414C91.3659 45.6133 88.0938 44.2323 85.4906 41.5346C82.8545 38.8074 81.5183 35.2611 81.5183 31.0008V1.547L68.2793 1.50684V29.5797C68.2793 38.3464 70.5609 44.8626 75.4615 50.0815C80.4259 55.3702 87.0342 58.0765 95.1031 58.1273H95.2327H95.3623C103.416 58.0662 110.01 55.3599 114.966 50.0798C119.867 44.8591 122.148 38.3446 122.148 29.5777V1.58543L108.911 1.54527Z" fill="#1E1E1E"/>
<path d="M35.9731 56.2016C34.7995 57.4692 33.178 58.1658 31.4063 58.1658C28.651 58.1658 26.1221 56.4844 24.9657 53.8828L0 1.34277H14.2313L36.9914 49.0009C37.3508 49.7918 37.5618 50.6142 37.6153 51.4488C37.7328 53.2437 37.152 54.9339 35.9731 56.2016Z" fill="#1E1E1E"/>
<path d="M56.8167 14.3262L56.8029 14.3577C56.7891 14.3856 56.7771 14.4136 56.7616 14.4397L48.6717 31.0516C48.3296 31.7534 47.3027 31.7534 46.9623 31.0516L38.8673 14.4311C38.8569 14.4084 38.8431 14.3873 38.8345 14.3629L38.8155 14.3262C38.2037 13.0255 37.8613 11.5711 37.8613 10.038C37.8613 4.50298 42.3262 0 47.8145 0C53.3026 0 57.7692 4.50298 57.7692 10.038C57.7692 11.5711 57.4269 13.0238 56.8167 14.3262Z" fill="#1E1E1E"/>
<path d="M217.461 12.3121C224.931 12.3121 231.129 17.7999 232.328 25.0005H202.594C203.794 17.7999 209.991 12.3121 217.461 12.3121ZM244.587 34.5182C244.962 32.3845 247.137 17.2795 235.831 7.40579C232.22 4.2523 226.072 0.493164 217.293 0.493164C201.737 0.493164 189.082 13.4085 189.082 29.2818C189.082 36.2415 191.487 42.9166 195.853 48.0762C200.205 53.22 206.328 56.6561 213.095 57.751C218.062 58.554 222.909 58.0548 227.501 56.2685C231.362 54.767 234.917 52.3801 237.787 49.3648L228.667 41.0536C225.908 44.1475 221.909 46.0927 217.461 46.0927C210.378 46.0927 204.439 41.1583 202.819 34.5059H223.776L244.584 34.5165L244.587 34.5182Z" fill="#1E1E1E"/>
</svg>
