<svg width="133" height="32" viewBox="0 0 133 32" fill="none" xmlns="http://www.w3.org/2000/svg">
<path d="M92.0876 29.9863C97.3703 27.689 97.6081 23.3457 97.6778 21.6636C97.8828 16.7051 93.1884 14.7144 91.6264 14.1012C89.2115 13.1467 83.568 12.0389 82.0757 11.5054C81.3734 11.2547 80.7185 10.8878 80.1385 10.4201C79.7715 10.1258 78.8716 8.45597 80.5976 7.44629C81.188 7.10087 82.3688 6.62873 84.839 6.62873C89.8429 6.62873 92.6185 8.8627 93.7071 9.6496L97.6737 4.90369C95.8802 3.30558 93.7705 2.1003 91.4808 1.36572C89.4828 0.741055 87.4003 0.426705 85.3064 0.433708C82.7788 0.433708 77.6027 0.842488 74.4171 4.84238C73.2547 6.30376 70.9424 11.5688 75.5999 15.3275C78.3858 17.5758 82.3995 18.5364 84.7262 19.0065C86.3662 19.3438 89.2156 20.055 90.1401 20.9768C90.3129 21.1231 90.448 21.3086 90.5339 21.5178C90.6199 21.7269 90.6543 21.9535 90.6342 22.1786C90.3759 24.5414 87.0878 24.9031 85.046 24.9031C83.2831 24.8853 81.5322 24.6098 79.8494 24.0856C77.0861 23.268 74.9008 21.1669 74.9008 21.1669L71.2109 25.9639C71.2109 25.9639 73.0415 28.2572 77.5145 29.9945C79.8166 30.8897 86.4133 32.4471 92.0835 29.9945" fill="white"/>
<path d="M59.1198 0.987416V16.7703C59.1198 19.0533 58.3941 20.9521 56.9633 22.4155C56.2732 23.1122 55.4513 23.6654 54.5452 24.0429C53.639 24.4205 52.6667 24.6149 51.6847 24.6149C50.7026 24.6149 49.7303 24.4205 48.8242 24.0429C47.9181 23.6654 47.0961 23.1122 46.4061 22.4155C44.9711 20.9521 44.2495 19.0533 44.2495 16.7703V0.987416L37.0645 0.962891V16.0039C37.0645 20.7048 38.2944 24.1937 40.9594 26.9898C43.653 29.8246 47.2404 31.2819 51.6191 31.3024H51.7585C56.131 31.2697 59.7102 29.8185 62.4018 26.9898C65.0667 24.1937 66.2967 20.7028 66.2967 16.0039V1.00786L59.1198 0.987416Z" fill="white"/>
<path d="M19.5257 30.2721C19.2084 30.6092 18.8242 30.8769 18.3975 31.0581C17.9708 31.2393 17.5111 31.3301 17.0474 31.3247C16.3047 31.318 15.5798 31.098 14.9595 30.6909C14.3392 30.2837 13.8499 29.7068 13.5501 29.0294L0 0.878906H7.7283L20.0833 26.4153C20.2757 26.8276 20.3904 27.2717 20.4216 27.7254C20.4585 28.1883 20.3982 28.6539 20.2447 29.0924C20.0912 29.5308 19.8477 29.9326 19.5298 30.2721" fill="white"/>
<path d="M30.8439 7.8342V7.8526L30.8214 7.89552L26.4304 16.7967C26.3863 16.8816 26.3197 16.9527 26.2378 17.0024C26.1559 17.0521 26.0619 17.0784 25.9661 17.0784C25.8702 17.0784 25.7762 17.0521 25.6943 17.0024C25.6124 16.9527 25.5458 16.8816 25.5018 16.7967L21.1005 7.89143C21.0936 7.87959 21.0874 7.8673 21.0821 7.85464V7.8342C20.6931 7.01304 20.5185 6.10715 20.5748 5.20073C20.631 4.2943 20.9161 3.41675 21.4036 2.64961C21.8911 1.88248 22.5651 1.25066 23.3632 0.812865C24.1612 0.37507 25.0573 0.145508 25.9681 0.145508C26.879 0.145508 27.775 0.37507 28.5731 0.812865C29.3711 1.25066 30.0452 1.88248 30.5327 2.64961C31.0202 3.41675 31.3053 4.2943 31.3615 5.20073C31.4177 6.10715 31.2432 7.01304 30.8542 7.8342" fill="white"/>
<path d="M118.044 6.75528C119.978 6.75816 121.848 7.44211 123.325 8.68635C124.801 9.93059 125.79 11.6551 126.115 13.5553H109.974C110.299 11.6551 111.287 9.93059 112.764 8.68635C114.241 7.44211 116.111 6.75816 118.044 6.75528ZM132.777 18.6548C132.982 17.5123 134.161 9.41847 128.023 4.12684C125.233 1.71158 121.655 0.394668 117.96 0.423309C109.516 0.423309 102.647 7.34391 102.647 15.8485C102.613 19.53 103.913 23.0999 106.308 25.9022C108.703 28.7045 112.032 30.5509 115.683 31.1021C118.313 31.5395 121.013 31.2656 123.501 30.3091C125.611 29.4962 127.518 28.2336 129.087 26.6096L124.126 22.156C123.131 23.2577 121.854 24.0683 120.432 24.5008C119.009 24.9333 117.496 24.9713 116.053 24.6107C114.611 24.2502 113.294 23.5046 112.245 22.4542C111.195 21.4038 110.453 20.0882 110.097 18.6487H121.472L132.777 18.6548Z" fill="white"/>
</svg>
