<svg width="880" height="400" viewBox="0 0 880 400" fill="none" xmlns="http://www.w3.org/2000/svg">
<ellipse cx="367" cy="327.5" rx="194" ry="16.5" fill="url(#paint0_radial_3508_14279)"/>
<path d="M194.691 208.268C220.902 208.268 267.249 194.428 291.465 184.397C315.68 174.367 337.683 159.665 356.216 141.132C374.75 122.598 389.452 100.595 399.482 76.3799C409.512 52.1645 422.485 26.2106 422.485 0L311.341 7.06579e-06C311.341 18.8475 290.638 49.5284 277.625 62.5407C269.412 70.7536 259.662 77.2685 248.931 81.7133C238.201 86.1581 206.306 97.1237 194.691 97.1237L194.691 208.268Z" fill="url(#paint1_radial_3508_14279)"/>
<rect x="311.41" width="111.076" height="324.551" fill="url(#paint2_radial_3508_14279)"/>
<path d="M472.383 162.457L459.73 199.633H451.139L438.539 162.457H446.505L453.482 184.585C453.621 184.967 453.812 185.679 454.055 186.72C454.333 187.727 454.61 188.803 454.888 189.948C455.166 191.059 455.357 191.996 455.461 192.76C455.565 191.996 455.739 191.059 455.982 189.948C456.259 188.803 456.537 187.727 456.815 186.72C457.092 185.679 457.283 184.967 457.387 184.585L464.416 162.457H472.383ZM496.196 199.633L493.488 190.781H479.951L477.243 199.633H468.756L481.877 162.301H491.51L504.683 199.633H496.196ZM488.906 175.526C488.733 174.936 488.507 174.189 488.229 173.287C487.952 172.384 487.674 171.465 487.396 170.527C487.119 169.59 486.893 168.774 486.719 168.08C486.546 168.774 486.303 169.642 485.99 170.684C485.713 171.69 485.435 172.662 485.157 173.599C484.914 174.502 484.723 175.144 484.585 175.526L481.929 184.169H491.614L488.906 175.526ZM519.7 162.457C524.49 162.457 527.979 163.498 530.166 165.581C532.387 167.629 533.498 170.458 533.498 174.068C533.498 175.699 533.255 177.261 532.769 178.754C532.283 180.212 531.467 181.531 530.322 182.711C529.211 183.856 527.736 184.759 525.896 185.419C524.056 186.078 521.783 186.408 519.075 186.408H515.691V199.633H507.829V162.457H519.7ZM519.284 168.913H515.691V179.951H518.294C519.787 179.951 521.071 179.761 522.147 179.379C523.223 178.997 524.056 178.389 524.647 177.556C525.237 176.723 525.532 175.647 525.532 174.328C525.532 172.489 525.028 171.135 524.022 170.267C523.015 169.365 521.436 168.913 519.284 168.913ZM560.361 199.633H538.961V162.457H560.361V168.913H546.823V177.088H559.424V183.544H546.823V193.124H560.361V199.633ZM457.491 252.153C452.805 252.153 449.213 250.904 446.714 248.405C444.249 245.905 443.017 242.573 443.017 238.408V214.457H450.358V237.314C450.358 240.473 450.966 242.712 452.181 244.031C453.43 245.35 455.27 246.01 457.7 246.01C460.199 246.01 462.039 245.315 463.219 243.927C464.399 242.504 464.989 240.3 464.989 237.314V214.457H472.331V238.512C472.331 238.894 472.313 239.258 472.279 239.605C472.73 239.536 473.146 239.501 473.528 239.501C476.305 239.501 478.405 240.23 479.828 241.688C481.286 243.146 482.015 245.524 482.015 248.821V251.633H475.663V249.238C475.663 247.641 475.385 246.53 474.83 245.905C474.309 245.281 473.493 244.968 472.383 244.968C471.793 244.968 471.307 245.003 470.925 245.072C469.849 247.224 468.183 248.943 465.926 250.227C463.705 251.511 460.893 252.153 457.491 252.153ZM481.251 234.451V227.578C481.251 224.974 481.928 222.649 483.281 220.601C484.67 218.518 486.718 216.887 489.425 215.707C492.167 214.526 495.587 213.936 499.682 213.936C505.479 213.936 509.922 215.186 513.012 217.685C516.101 220.184 517.646 223.517 517.646 227.682V251.633H510.304V228.775C510.304 226.207 509.697 224.263 508.482 222.944C507.267 221.59 505.479 220.722 503.119 220.341V243.042H495.725V220.341C493.261 220.757 491.456 221.66 490.31 223.048C489.165 224.436 488.592 226.346 488.592 228.775V234.451H481.251ZM525.061 251.633V227.578C525.061 224.974 525.582 222.649 526.623 220.601C527.699 218.518 529.278 216.887 531.361 215.707C533.479 214.526 536.099 213.936 539.223 213.936C543.944 213.936 547.433 215.238 549.689 217.841C551.98 220.41 553.125 224.176 553.125 229.14H545.784C545.784 225.912 545.246 223.603 544.17 222.215C543.128 220.792 541.427 220.08 539.067 220.08C536.741 220.08 535.041 220.792 533.965 222.215C532.923 223.603 532.403 225.79 532.403 228.775V251.633H525.061ZM573.109 252.153C568.423 252.153 564.83 250.904 562.331 248.405C559.866 245.905 558.634 242.573 558.634 238.408V214.457H565.976V237.314C565.976 240.473 566.583 242.712 567.798 244.031C569.048 245.35 570.887 246.01 573.317 246.01C575.816 246.01 577.656 245.315 578.836 243.927C580.016 242.504 580.606 240.3 580.606 237.314V214.457H587.948V238.512C587.948 238.894 587.931 239.258 587.896 239.605C588.347 239.536 588.764 239.501 589.145 239.501C591.922 239.501 594.022 240.23 595.446 241.688C596.903 243.146 597.632 245.524 597.632 248.821V251.633H591.28V249.238C591.28 247.641 591.002 246.53 590.447 245.905C589.926 245.281 589.111 244.968 588 244.968C587.41 244.968 586.924 245.003 586.542 245.072C585.466 247.224 583.8 248.943 581.544 250.227C579.322 251.511 576.51 252.153 573.109 252.153ZM613.92 252.153C610.97 252.153 608.418 251.598 606.266 250.487C604.114 249.342 602.448 247.71 601.268 245.593C600.087 243.476 599.497 240.942 599.497 237.991C599.497 235.145 599.983 232.368 600.955 229.661C601.927 226.953 603.229 224.454 604.86 222.163C603.021 221.781 601.632 220.913 600.695 219.56C599.758 218.171 599.289 216.175 599.289 213.572V212.062H606.631V213.624C606.631 215.568 606.978 216.852 607.672 217.477C608.401 218.067 609.546 218.362 611.108 218.362H613.972L614.389 219.143C613.451 220.184 612.532 221.451 611.629 222.944C610.727 224.402 609.911 225.998 609.182 227.734C608.488 229.435 607.915 231.17 607.464 232.941C607.047 234.676 606.839 236.36 606.839 237.991C606.839 240.56 607.446 242.538 608.661 243.927C609.911 245.315 611.664 246.01 613.92 246.01C616.35 246.01 618.103 245.35 619.179 244.031C620.255 242.712 620.793 240.803 620.793 238.304V229.765H628.134V238.772C628.134 242.972 626.85 246.253 624.281 248.613C621.747 250.973 618.294 252.153 613.92 252.153ZM635.209 251.633V246.166H630.315V240.022H635.209V228.775C635.209 225.582 635.764 222.892 636.875 220.705C637.986 218.483 639.53 216.8 641.509 215.654C643.488 214.509 645.744 213.936 648.278 213.936C650.881 213.936 653.12 214.422 654.994 215.394C656.869 216.331 658.309 217.65 659.316 219.351C660.323 221.017 660.826 222.927 660.826 225.079C660.826 228.446 659.698 231.066 657.442 232.941C655.22 234.815 651.888 235.752 647.445 235.752H642.55V240.022H660.826V246.166H642.55V251.633H635.209ZM642.55 229.608H647.288C649.093 229.608 650.569 229.244 651.714 228.515C652.86 227.751 653.432 226.623 653.432 225.131C653.432 223.673 653.068 222.475 652.339 221.538C651.61 220.566 650.291 220.08 648.382 220.08C647.028 220.08 645.917 220.375 645.05 220.965C644.216 221.521 643.592 222.493 643.175 223.881C642.759 225.27 642.55 227.179 642.55 229.608ZM681.201 252.153C676.515 252.153 672.922 250.904 670.423 248.405C667.958 245.905 666.726 242.573 666.726 238.408V214.457H674.068V237.314C674.068 240.473 674.675 242.712 675.89 244.031C677.14 245.35 678.979 246.01 681.409 246.01C683.908 246.01 685.748 245.315 686.928 243.927C688.108 242.504 688.698 240.3 688.698 237.314V214.457H696.04V238.512C696.04 238.894 696.023 239.258 695.988 239.605C696.439 239.536 696.856 239.501 697.237 239.501C700.014 239.501 702.114 240.23 703.538 241.688C704.995 243.146 705.724 245.524 705.724 248.821V251.633H699.372V249.238C699.372 247.641 699.094 246.53 698.539 245.905C698.018 245.281 697.203 244.968 696.092 244.968C695.502 244.968 695.016 245.003 694.634 245.072C693.558 247.224 691.892 248.943 689.636 250.227C687.414 251.511 684.602 252.153 681.201 252.153ZM722.012 252.153C719.061 252.153 716.51 251.598 714.358 250.487C712.206 249.342 710.54 247.71 709.36 245.593C708.179 243.476 707.589 240.942 707.589 237.991C707.589 235.145 708.075 232.368 709.047 229.661C710.019 226.953 711.321 224.454 712.952 222.163C711.113 221.781 709.724 220.913 708.787 219.56C707.85 218.171 707.381 216.175 707.381 213.572V212.062H714.723V213.624C714.723 215.568 715.07 216.852 715.764 217.477C716.493 218.067 717.638 218.362 719.2 218.362H722.064L722.481 219.143C721.543 220.184 720.624 221.451 719.721 222.944C718.819 224.402 718.003 225.998 717.274 227.734C716.58 229.435 716.007 231.17 715.556 232.941C715.139 234.676 714.931 236.36 714.931 237.991C714.931 240.56 715.538 242.538 716.753 243.927C718.003 245.315 719.756 246.01 722.012 246.01C724.442 246.01 726.195 245.35 727.271 244.031C728.347 242.712 728.885 240.803 728.885 238.304V229.765H736.226V238.772C736.226 242.972 734.942 246.253 732.373 248.613C729.839 250.973 726.386 252.153 722.012 252.153ZM742.624 214.457H749.965V224.922C749.965 225.894 749.931 226.849 749.861 227.786C749.827 228.723 749.74 229.678 749.601 230.65H749.965C751.007 228.706 752.447 227.265 754.287 226.328C756.127 225.356 758.244 224.87 760.639 224.87C763.208 224.87 765.429 225.426 767.304 226.536C769.178 227.613 770.619 229.14 771.625 231.118C772.632 233.062 773.135 235.353 773.135 237.991V241.063H765.794V238.512C765.794 233.513 763.468 231.014 758.817 231.014C756.248 231.014 754.131 231.726 752.465 233.149C750.799 234.572 749.965 236.707 749.965 239.553V251.633H742.624V214.457ZM778.371 213.936L806.123 217.737L805.342 223.829L794.929 222.423C791.77 224.471 789.288 226.884 787.483 229.661C785.713 232.437 784.828 235.18 784.828 237.887C784.828 240.456 785.452 242.452 786.702 243.875C787.986 245.298 789.757 246.01 792.013 246.01C794.477 246.01 796.265 245.333 797.376 243.979C798.487 242.625 799.042 240.681 799.042 238.147V236.898H806.383V238.616C806.383 241.428 805.793 243.857 804.613 245.905C803.468 247.919 801.819 249.463 799.667 250.539C797.515 251.615 794.963 252.153 792.013 252.153C789.062 252.153 786.494 251.581 784.307 250.435C782.155 249.29 780.471 247.658 779.256 245.541C778.076 243.389 777.486 240.838 777.486 237.887C777.486 235.943 777.851 233.947 778.58 231.899C779.343 229.817 780.385 227.856 781.704 226.016C783.057 224.141 784.619 222.545 786.39 221.226L777.59 220.028L778.371 213.936ZM812.561 251.633V227.578C812.561 224.974 813.099 222.649 814.175 220.601C815.285 218.518 816.917 216.887 819.069 215.707C821.256 214.526 823.998 213.936 827.296 213.936C832.225 213.936 835.869 215.238 838.23 217.841C840.59 220.41 841.77 224.176 841.77 229.14H834.429C834.429 225.912 833.856 223.603 832.711 222.215C831.565 220.792 829.708 220.08 827.139 220.08C824.64 220.08 822.8 220.792 821.62 222.215C820.475 223.603 819.902 225.79 819.902 228.775V245.489H841.978V251.633H812.561ZM457.491 304.153C452.805 304.153 449.213 302.904 446.714 300.405C444.249 297.905 443.017 294.573 443.017 290.408V266.457H450.358V289.314C450.358 292.473 450.966 294.712 452.181 296.031C453.43 297.35 455.27 298.01 457.7 298.01C460.199 298.01 462.039 297.315 463.219 295.927C464.399 294.504 464.989 292.3 464.989 289.314V266.457H472.331V290.512C472.331 290.894 472.313 291.258 472.279 291.605C472.73 291.536 473.146 291.501 473.528 291.501C476.305 291.501 478.405 292.23 479.828 293.688C481.286 295.146 482.015 297.524 482.015 300.821V303.633H475.663V301.238C475.663 299.641 475.385 298.53 474.83 297.905C474.309 297.281 473.493 296.968 472.383 296.968C471.793 296.968 471.307 297.003 470.925 297.072C469.849 299.224 468.183 300.943 465.926 302.227C463.705 303.511 460.893 304.153 457.491 304.153ZM483.855 265.936L511.607 269.737L510.826 275.829L500.412 274.423C497.253 276.471 494.772 278.884 492.967 281.661C491.196 284.437 490.311 287.18 490.311 289.887C490.311 292.456 490.936 294.452 492.186 295.875C493.47 297.298 495.24 298.01 497.496 298.01C499.961 298.01 501.749 297.333 502.859 295.979C503.97 294.625 504.525 292.681 504.525 290.147V288.898H511.867V290.616C511.867 293.428 511.277 295.857 510.097 297.905C508.951 299.919 507.302 301.463 505.15 302.539C502.998 303.615 500.447 304.153 497.496 304.153C494.546 304.153 491.977 303.581 489.791 302.435C487.638 301.29 485.955 299.658 484.74 297.541C483.56 295.389 482.97 292.838 482.97 289.887C482.97 287.943 483.334 285.947 484.063 283.899C484.827 281.817 485.868 279.856 487.187 278.016C488.541 276.141 490.103 274.545 491.873 273.226L483.074 272.028L483.855 265.936ZM518.305 303.633V266.457H525.646V274.423H541.526V283.118C541.526 285.479 541.908 287.197 542.672 288.273C543.47 289.349 544.703 289.887 546.369 289.887C548 289.887 549.198 289.366 549.961 288.325C550.725 287.284 551.107 285.548 551.107 283.118V274.423H558.448V283.483C558.448 287.544 557.407 290.651 555.324 292.803C553.276 294.955 550.291 296.031 546.369 296.031C538.246 296.031 534.185 292.005 534.185 283.951V280.567H525.646V303.633H518.305ZM578.346 304.153C573.66 304.153 570.067 302.904 567.568 300.405C565.104 297.905 563.871 294.573 563.871 290.408V266.457H571.213V289.314C571.213 292.473 571.82 294.712 573.035 296.031C574.285 297.35 576.124 298.01 578.554 298.01C581.053 298.01 582.893 297.315 584.073 295.927C585.254 294.504 585.844 292.3 585.844 289.314V266.457H593.185V290.512C593.185 290.894 593.168 291.258 593.133 291.605C593.584 291.536 594.001 291.501 594.383 291.501C597.16 291.501 599.26 292.23 600.683 293.688C602.141 295.146 602.87 297.524 602.87 300.821V303.633H596.517V301.238C596.517 299.641 596.24 298.53 595.684 297.905C595.164 297.281 594.348 296.968 593.237 296.968C592.647 296.968 592.161 297.003 591.779 297.072C590.703 299.224 589.037 300.943 586.781 302.227C584.559 303.511 581.748 304.153 578.346 304.153ZM606.597 303.633V279.578C606.597 276.974 607.117 274.649 608.159 272.601C609.235 270.518 610.814 268.887 612.897 267.707C615.014 266.526 617.635 265.936 620.759 265.936C625.48 265.936 628.968 267.238 631.225 269.841C633.515 272.41 634.661 276.176 634.661 281.14H627.319C627.319 277.912 626.781 275.603 625.705 274.215C624.664 272.792 622.963 272.08 620.603 272.08C618.277 272.08 616.576 272.792 615.5 274.215C614.459 275.603 613.938 277.79 613.938 280.775V303.633H606.597ZM637.619 298.218L643.294 277.703C644.405 273.677 646.036 270.709 648.188 268.8C650.34 266.891 653.43 265.936 657.456 265.936C659.261 265.936 660.997 266.231 662.663 266.821C664.329 267.412 665.908 268.349 667.401 269.633L663.288 274.736C662.489 273.937 661.587 273.295 660.58 272.809C659.608 272.323 658.567 272.08 657.456 272.08C656.068 272.08 654.957 272.306 654.124 272.757C653.291 273.174 652.597 273.92 652.041 274.996C651.521 276.037 651 277.495 650.479 279.37L646.314 294.052L655.061 296.343C657.56 297.003 659.539 297.784 660.997 298.686C662.455 299.589 663.479 300.665 664.069 301.915C664.693 303.129 665.006 304.535 665.006 306.132V309.881H657.664V307.173C657.664 305.854 657.3 304.813 656.571 304.049C655.842 303.286 654.783 302.713 653.395 302.331L637.619 298.218ZM671.504 303.633V279.578C671.504 276.974 672.06 274.649 673.171 272.601C674.281 270.518 675.93 268.887 678.117 267.707C680.339 266.526 683.081 265.936 686.344 265.936C691.03 265.936 694.605 267.186 697.069 269.685C699.569 272.184 700.818 275.517 700.818 279.682V303.633H693.477V280.723C693.477 277.565 692.852 275.343 691.602 274.059C690.387 272.74 688.565 272.08 686.135 272.08C683.636 272.08 681.796 272.774 680.616 274.163C679.436 275.551 678.846 277.738 678.846 280.723V303.633H671.504ZM708.524 303.633V266.457H715.866V274.736H718.052C719.857 274.736 721.315 274.927 722.426 275.308C723.572 275.69 724.578 276.419 725.446 277.495C726.314 278.536 727.268 280.081 728.31 282.129C729.177 283.83 729.889 285.08 730.444 285.878C731 286.676 731.503 287.197 731.954 287.44C732.44 287.648 732.996 287.752 733.62 287.752H734.714V293.896H732.839C730.791 293.896 729.056 293.41 727.633 292.438C726.21 291.432 724.96 289.87 723.884 287.752C722.912 285.774 722.114 284.299 721.489 283.327C720.899 282.355 720.309 281.713 719.719 281.4C719.163 281.053 718.434 280.88 717.532 280.88H715.866V303.633H708.524ZM755.001 304.153C751.703 304.153 748.961 303.563 746.774 302.383C744.587 301.203 742.939 299.589 741.828 297.541C740.752 295.458 740.214 293.115 740.214 290.512V266.457H747.555V289.262C747.555 292.282 748.128 294.504 749.274 295.927C750.454 297.315 752.293 298.01 754.793 298.01C757.222 298.01 759.062 297.367 760.312 296.083C761.561 294.764 762.186 292.525 762.186 289.366V266.457H777.025V272.601H769.528V290.408C769.528 294.608 768.278 297.958 765.779 300.457C763.28 302.921 759.687 304.153 755.001 304.153Z" fill="url(#paint3_radial_3508_14279)"/>
<path d="M323.179 294.746L327.444 270.144H314.979V249.151H331.052L335.152 224.877H320.719V203.884H338.76L342.861 179.938H364.51L360.41 203.884H384.191L388.292 179.938H409.941L405.841 203.884H418.306V224.877H402.233L398.132 249.151H412.565V270.144H394.524L390.26 294.746H368.61L372.875 270.144H349.093L344.829 294.746H323.179ZM352.701 249.151H376.483L380.583 224.877H356.802L352.701 249.151Z" fill="url(#paint4_linear_3508_14279)"/>
<defs>
<radialGradient id="paint0_radial_3508_14279" cx="0" cy="0" r="1" gradientUnits="userSpaceOnUse" gradientTransform="translate(367 327.5) rotate(90) scale(16.5 194)">
<stop stop-color="#5D4718"/>
<stop offset="0.343744" stop-color="#9F8650"/>
<stop offset="1" stop-color="white" stop-opacity="0"/>
</radialGradient>
<radialGradient id="paint1_radial_3508_14279" cx="0" cy="0" r="1" gradientUnits="userSpaceOnUse" gradientTransform="translate(194.691 208.268) rotate(-45.9358) scale(169.074 244.915)">
<stop stop-color="#F8F4EB"/>
<stop offset="1" stop-color="#C5AB66"/>
</radialGradient>
<radialGradient id="paint2_radial_3508_14279" cx="0" cy="0" r="1" gradientUnits="userSpaceOnUse" gradientTransform="translate(311.844 2.10383e-06) rotate(70.5653) scale(259.501 237.601)">
<stop stop-color="#F1E9D6"/>
<stop offset="1" stop-color="#9E864F"/>
</radialGradient>
<radialGradient id="paint3_radial_3508_14279" cx="0" cy="0" r="1" gradientUnits="userSpaceOnUse" gradientTransform="translate(440.129 153.633) rotate(26.3684) scale(353.118 410.035)">
<stop stop-color="#EDE4CF"/>
<stop offset="1" stop-color="#9F8650"/>
</radialGradient>
<linearGradient id="paint4_linear_3508_14279" x1="164.84" y1="70.2964" x2="295.564" y2="393.651" gradientUnits="userSpaceOnUse">
<stop stop-color="#FEFEFE"/>
<stop offset="1" stop-color="#FBFFFA"/>
</linearGradient>
</defs>
</svg>
