<svg width="467" height="344" viewBox="0 0 467 344" fill="none" xmlns="http://www.w3.org/2000/svg">
<ellipse cx="194" cy="327.5" rx="194" ry="16.5" fill="url(#paint0_radial_385_8164)"/>
<path d="M21.6914 208.268C47.902 208.268 94.2492 194.428 118.465 184.397C142.68 174.367 164.683 159.665 183.216 141.132C201.75 122.598 216.452 100.595 226.482 76.3799C236.512 52.1645 249.485 26.2106 249.485 0L138.341 7.06579e-06C138.341 18.8475 117.638 49.5284 104.625 62.5407C96.4124 70.7536 86.6621 77.2685 75.9313 81.7133C65.2006 86.1581 33.3063 97.1237 21.6914 97.1237L21.6914 208.268Z" fill="url(#paint1_radial_385_8164)"/>
<rect x="138.41" width="111.076" height="324.551" fill="url(#paint2_radial_385_8164)"/>
<path d="M269.913 220.632V184.185H286.834C291 184.185 294.28 185.33 296.363 187.413C298.029 189.079 298.862 191.11 298.862 193.713C298.862 197.826 296.675 200.117 294.072 201.575C298.289 203.189 300.893 205.637 300.893 210.635C300.893 217.3 295.478 220.632 287.251 220.632H269.913ZM277.723 198.92H285.116C288.657 198.92 290.896 197.774 290.896 194.963C290.896 192.568 289.021 191.214 285.637 191.214H277.723V198.92ZM277.723 213.603H287.251C290.792 213.603 292.926 212.353 292.926 209.542C292.926 207.094 291.104 205.584 286.991 205.584H277.723V213.603ZM305.926 220.632V184.185H333.418V191.318H313.893V198.712H331.075V205.845H313.893V213.499H333.678V220.632H305.926ZM370.642 184.185V220.632H362.727V196.733L346.795 220.632H339.245V184.185H347.159V208.084L363.196 184.185H370.642ZM355.074 181.425C350.283 181.425 347.055 178.51 346.326 173.511L350.96 172.678C351.637 174.813 352.887 176.167 355.074 176.167C357.26 176.167 358.51 174.813 359.187 172.678L363.821 173.511C363.092 178.51 359.864 181.425 355.074 181.425ZM377.852 220.632V184.185H408.259V220.632H400.241V191.422H385.87V220.632H377.852ZM277.931 243.422V249.774H287.563C295.79 249.774 300.372 254.252 300.372 261.073C300.372 268.519 295.217 272.632 286.782 272.632H269.913V236.185H297.873V243.422H277.931ZM286.73 256.439H277.931V265.395H286.782C290.531 265.395 292.354 263.937 292.354 260.761C292.354 257.949 290.531 256.439 286.73 256.439ZM305.418 272.632V236.185H320.309C329.004 236.185 334.263 241.34 334.263 248.889C334.263 257.324 327.703 261.698 319.528 261.698H313.436V272.632H305.418ZM313.436 254.565H319.788C323.798 254.565 326.141 252.169 326.141 248.941C326.141 245.349 323.641 243.422 319.632 243.422H313.436V254.565ZM338.635 272.632V236.185H366.126V243.318H346.601V250.712H363.783V257.845H346.601V265.499H366.387V272.632H338.635ZM371.954 272.632V236.185H379.972V250.607H394.759V236.185H402.778V272.632H394.759V258.001H379.972V272.632H371.954ZM406.098 280.234V265.395H409.534C412.242 259.094 413.543 252.898 413.543 240.454V236.185H440.045V265.395H444.419L443.378 280.234H436.661V272.632H413.856L413.335 280.234H406.098ZM432.027 243.422H421.249V247.119C421.249 254.825 420.052 260.344 417.969 265.395H432.027V243.422ZM269.913 324.632V288.185H286.834C291 288.185 294.28 289.33 296.363 291.413C298.029 293.079 298.862 295.11 298.862 297.713C298.862 301.826 296.675 304.117 294.072 305.575C298.289 307.189 300.893 309.637 300.893 314.635C300.893 321.3 295.478 324.632 287.251 324.632H269.913ZM277.723 302.92H285.116C288.657 302.92 290.896 301.774 290.896 298.963C290.896 296.568 289.021 295.214 285.637 295.214H277.723V302.92ZM277.723 317.603H287.251C290.792 317.603 292.926 316.353 292.926 313.542C292.926 311.094 291.104 309.584 286.991 309.584H277.723V317.603ZM319.974 324.632V288.185H328.617L338.198 303.597L347.778 288.185H356.421V324.632H348.455V300.837L338.198 316.405H337.99L327.836 300.993V324.632H319.974ZM395.011 288.185V324.632H387.097V300.733L371.165 324.632H363.615V288.185H371.529V312.084L387.566 288.185H395.011ZM402.222 324.632V288.185H417.113C425.808 288.185 431.067 293.34 431.067 300.889C431.067 309.324 424.507 313.698 416.332 313.698H410.24V324.632H402.222ZM410.24 306.565H416.592C420.602 306.565 422.945 304.169 422.945 300.941C422.945 297.349 420.445 295.422 416.436 295.422H410.24V306.565ZM435.439 324.632V288.185H462.931V295.318H443.405V302.712H460.587V309.845H443.405V317.499H463.191V324.632H435.439Z" fill="url(#paint3_radial_385_8164)"/>
<path d="M150.179 294.747L154.444 270.145H141.979V249.152H158.052L162.152 224.878H147.719V203.885H165.76L169.861 179.939H191.51L187.41 203.885H211.191L215.292 179.939H236.941L232.841 203.885H245.306V224.878H229.233L225.132 249.152H239.565V270.145H221.524L217.26 294.747H195.61L199.875 270.145H176.093L171.829 294.747H150.179ZM179.701 249.152H203.483L207.583 224.878H183.802L179.701 249.152Z" fill="url(#paint4_linear_385_8164)"/>
<defs>
<radialGradient id="paint0_radial_385_8164" cx="0" cy="0" r="1" gradientUnits="userSpaceOnUse" gradientTransform="translate(194 327.5) rotate(90) scale(16.5 194)">
<stop stop-color="#5D4718"/>
<stop offset="0.343744" stop-color="#9F8650"/>
<stop offset="1" stop-color="white" stop-opacity="0"/>
</radialGradient>
<radialGradient id="paint1_radial_385_8164" cx="0" cy="0" r="1" gradientUnits="userSpaceOnUse" gradientTransform="translate(21.6914 208.268) rotate(-45.9358) scale(169.074 244.915)">
<stop stop-color="#F8F4EB"/>
<stop offset="1" stop-color="#C5AB66"/>
</radialGradient>
<radialGradient id="paint2_radial_385_8164" cx="0" cy="0" r="1" gradientUnits="userSpaceOnUse" gradientTransform="translate(138.844 2.10383e-06) rotate(70.5653) scale(259.501 237.601)">
<stop stop-color="#F1E9D6"/>
<stop offset="1" stop-color="#9E864F"/>
</radialGradient>
<radialGradient id="paint3_radial_385_8164" cx="0" cy="0" r="1" gradientUnits="userSpaceOnUse" gradientTransform="translate(266.324 179.632) rotate(36.9733) scale(195.573 274.218)">
<stop stop-color="#EDE4CF"/>
<stop offset="1" stop-color="#9F8650"/>
</radialGradient>
<linearGradient id="paint4_linear_385_8164" x1="-8.16022" y1="70.2973" x2="122.564" y2="393.652" gradientUnits="userSpaceOnUse">
<stop stop-color="#FEFEFE"/>
<stop offset="1" stop-color="#FBFFFA"/>
</linearGradient>
</defs>
</svg>
