<svg width="24" height="24" viewBox="0 0 24 24" fill="none" xmlns="http://www.w3.org/2000/svg">
<path d="M19.6531 24C19.6446 24 19.6361 24 19.6276 24C15.5278 23.8658 10.7249 19.8922 7.41576 16.5813C4.10232 13.2703 0.128315 8.46584 0.000464914 4.38576C-0.0464131 2.954 3.46733 0.407938 3.50355 0.382371C4.41555 -0.252546 5.4277 -0.0267034 5.84321 0.548557C6.12448 0.938455 8.78802 4.9738 9.07782 5.43188C9.37826 5.907 9.33351 6.61436 8.95849 7.32384C8.7518 7.71801 8.06567 8.92392 7.74391 9.4864C8.09124 9.98069 9.00963 11.193 10.9061 13.0892C12.8046 14.9855 14.015 15.9059 14.5114 16.2532C15.074 15.9314 16.28 15.2454 16.6742 15.0387C17.3731 14.668 18.0763 14.6211 18.5558 14.9151C19.0459 15.2156 23.071 17.8916 23.4418 18.1494C23.7529 18.3688 23.9532 18.7438 23.9936 19.1806C24.032 19.6216 23.8956 20.0882 23.6122 20.4952C23.5888 20.5293 21.0723 24 19.6531 24Z" fill="#613281"/>
</svg>
