<svg width="60" height="60" viewBox="0 0 60 60" fill="none" xmlns="http://www.w3.org/2000/svg">
<circle cx="30" cy="30" r="30" fill="#D9D9D9"/>
<path d="M41.4797 48C41.4669 48 41.4541 48 41.4414 48C35.2918 47.7987 28.0874 41.8383 23.1236 36.8719C18.1535 31.9055 12.1925 24.6988 12.0007 18.5786C11.9304 16.431 17.201 12.6119 17.2553 12.5736C18.6233 11.6212 20.1415 11.9599 20.7648 12.8228C21.1867 13.4077 25.182 19.4607 25.6167 20.1478C26.0674 20.8605 26.0003 21.9215 25.4377 22.9858C25.1277 23.577 24.0985 25.3859 23.6159 26.2296C24.1369 26.971 25.5144 28.7895 28.3591 31.6338C31.207 34.4782 33.0224 35.8588 33.7672 36.3797C34.611 35.8972 36.42 34.8681 37.0114 34.5581C38.0597 34.002 39.1145 33.9317 39.8336 34.3727C40.5688 34.8233 46.6065 38.8374 47.1626 39.2241C47.6293 39.5533 47.9297 40.1157 47.9905 40.7709C48.048 41.4324 47.8434 42.1323 47.4183 42.7428C47.3832 42.7939 43.6084 48 41.4797 48Z" fill="black"/>
</svg>
