<svg width="40" height="40" viewBox="0 0 40 40" fill="none" xmlns="http://www.w3.org/2000/svg">
<path d="M9.98332 31.2319C9.76999 31.2319 9.55665 31.1502 9.39332 30.9886C6.56166 28.1552 5 24.3886 5 20.3819C5 16.3753 6.56166 12.6086 9.39499 9.77695C9.71999 9.45195 10.2483 9.45195 10.5733 9.77695C10.8983 10.102 10.8983 10.6303 10.5733 10.9553C8.05499 13.4736 6.66666 16.8203 6.66666 20.3819C6.66666 23.9436 8.05499 27.2902 10.5733 29.8086C10.8983 30.1336 10.8983 30.6619 10.5733 30.9869C10.41 31.1502 10.1967 31.2319 9.98332 31.2319Z" fill="white"/>
<path d="M6.44998 34.7653C6.23665 34.7653 6.02331 34.6837 5.85998 34.522C2.08166 30.742 0 25.7204 0 20.382C0 15.0437 2.08166 10.0221 5.86165 6.24375C6.18665 5.91875 6.71498 5.91875 7.03998 6.24375C7.36498 6.56875 7.36498 7.09708 7.03998 7.42208C3.57499 10.8854 1.66666 15.4887 1.66666 20.382C1.66666 25.2754 3.57499 29.8787 7.03998 33.342C7.36498 33.667 7.36498 34.1953 7.03998 34.5203C6.87665 34.6837 6.66331 34.7653 6.44998 34.7653Z" fill="white"/>
<path d="M33.5505 34.7653C33.3372 34.7653 33.1239 34.6837 32.9605 34.522C32.6355 34.197 32.6355 33.6687 32.9605 33.3437C36.4255 29.8787 38.3339 25.2754 38.3339 20.382C38.3339 15.4887 36.4255 10.8854 32.9605 7.42208C32.6355 7.09708 32.6355 6.56875 32.9605 6.24375C33.2855 5.91875 33.8139 5.91875 34.1389 6.24375C37.9189 10.0221 40.0005 15.0437 40.0005 20.382C40.0005 25.7204 37.9189 30.742 34.1389 34.5203C33.9772 34.6837 33.7639 34.7653 33.5505 34.7653Z" fill="white"/>
<path d="M30.0173 31.2319C29.804 31.2319 29.5907 31.1502 29.4273 30.9886C29.1023 30.6636 29.1023 30.1352 29.4273 29.8102C31.9457 27.2902 33.334 23.9436 33.334 20.3819C33.334 16.8203 31.9457 13.4736 29.4273 10.9553C29.1023 10.6303 29.1023 10.102 29.4273 9.77695C29.7523 9.45195 30.2807 9.45195 30.6057 9.77695C33.439 12.6086 35.0007 16.3753 35.0007 20.3819C35.0007 24.3886 33.439 28.1552 30.6057 30.9869C30.444 31.1502 30.2307 31.2319 30.0173 31.2319Z" fill="white"/>
<path d="M15.9553 33.7152C15.8286 33.7152 15.7019 33.6869 15.5836 33.6285C15.2269 33.4502 15.0469 33.0452 15.1519 32.6602L18.0736 22.0486H12.5003C12.1853 22.0486 11.8969 21.8703 11.7553 21.5886C11.6153 21.3069 11.6453 20.9686 11.8336 20.7169L21.8052 7.38363C22.0352 7.07529 22.4469 6.96529 22.7986 7.11529C23.1519 7.26529 23.3569 7.63696 23.2952 8.01696L21.8152 17.0486H27.5002C27.8169 17.0486 28.1069 17.2286 28.2486 17.5136C28.3886 17.7986 28.3536 18.1386 28.1602 18.3903L16.6153 33.3902C16.4536 33.6002 16.2069 33.7152 15.9553 33.7152ZM14.1653 20.3819H19.1669C19.4269 20.3819 19.6719 20.5036 19.8302 20.7103C19.9869 20.9186 20.0386 21.1869 19.9702 21.4369L17.8869 29.0069L25.8069 18.7153H20.8336C20.5886 18.7153 20.3569 18.6086 20.1986 18.4219C20.0402 18.2353 19.9719 17.9886 20.0102 17.7469L21.0986 11.1103L14.1653 20.3819Z" fill="white"/>
</svg>
