<svg width="114" height="115" viewBox="0 0 114 115" fill="none" xmlns="http://www.w3.org/2000/svg">
<circle cx="57" cy="57.6953" r="53.5" stroke="#00B1EB" stroke-width="7"/>
<path d="M77.153 49.3095V58.5987H38.1875V49.3095H40.8417V38.8746L48.3213 33.6268V38.8746L55.7998 33.6268V38.8746L63.2799 33.6268V43.9417H65.8606L67.2621 25.6953H71.5398L72.7666 43.9417H75.6446V49.3102L77.153 49.3095ZM50.4021 45.2982H44.5216V50.7267H50.4021V45.2982ZM60.535 45.2982H54.6544V50.7267H60.535V45.2982ZM70.7953 45.2982H64.9148V50.7267H70.7953V45.2982Z" fill="black"/>
<path d="M77.1449 68.6816H37.8477V90.5145H77.1449V68.6816Z" fill="#F0F0F0"/>
<path d="M59.9524 68.6816H55.0402V77.5511H37.8477V81.6447H55.0402V90.5142H59.9524V81.6447H77.1449V77.5511H59.9524V68.6816Z" fill="#D80027"/>
<path d="M68.0703 83.3936L77.1436 87.5944V83.3936H68.0703Z" fill="#0052B4"/>
<path d="M61.7656 83.3936L77.1428 90.5129V88.4997L66.114 83.3936H61.7656Z" fill="#0052B4"/>
<path d="M73.0468 90.5125L61.7656 85.2891V90.5125H73.0468Z" fill="#0052B4"/>
<path d="M61.7695 83.3945L77.1467 90.5138V88.5007L66.1179 83.3945H61.7695Z" fill="#F0F0F0"/>
<path d="M61.7695 83.3945L77.1467 90.5138V88.5007L66.1179 83.3945H61.7695Z" fill="#D80027"/>
<path d="M44.7815 83.3936L37.8477 86.6038V83.3936H44.7815Z" fill="#0052B4"/>
<path d="M53.2254 84.2988V90.5129H39.8047L53.2254 84.2988Z" fill="#0052B4"/>
<path d="M48.8764 83.3945L37.8477 88.5007V90.5138L53.2249 83.3945H48.8764Z" fill="#D80027"/>
<path d="M46.9209 75.8004L37.8477 71.5996V75.8004H46.9209Z" fill="#0052B4"/>
<path d="M53.2249 75.8009L37.8477 68.6816V70.6948L48.8764 75.8009H53.2249Z" fill="#0052B4"/>
<path d="M41.9453 68.6816L53.2265 73.9051V68.6816H41.9453Z" fill="#0052B4"/>
<path d="M53.2249 75.8009L37.8477 68.6816V70.6948L48.8764 75.8009H53.2249Z" fill="#F0F0F0"/>
<path d="M53.2249 75.8009L37.8477 68.6816V70.6948L48.8764 75.8009H53.2249Z" fill="#D80027"/>
<path d="M70.207 75.8011L77.1409 72.5908V75.8011H70.207Z" fill="#0052B4"/>
<path d="M61.7656 74.8957V68.6816H75.1863L61.7656 74.8957Z" fill="#0052B4"/>
<path d="M66.1179 75.8009L77.1467 70.6948V68.6816L61.7695 75.8009H66.1179Z" fill="#D80027"/>
<rect x="37.8516" y="62.5674" width="39.2992" height="2.61995" fill="black"/>
</svg>
