<svg width="114" height="114" viewBox="0 0 114 114" fill="none" xmlns="http://www.w3.org/2000/svg">
<circle cx="57" cy="57" r="53.5" stroke="#EF7D00" stroke-width="7"/>
<rect x="34.0586" y="78.7793" width="46.8787" height="3.12525" fill="black"/>
<path d="M74.1685 53.4707H70.543C70.9125 54.4825 71.1144 55.5744 71.1144 56.7124V70.4147C71.1144 70.8892 71.0318 71.3447 70.8816 71.7682H76.8754C79.1143 71.7682 80.9358 69.9467 80.9358 67.7078V60.238C80.9359 56.5066 77.9 53.4707 74.1685 53.4707Z" fill="black"/>
<path d="M43.8762 56.7124C43.8762 55.5743 44.0781 54.4825 44.4476 53.4707H40.8221C37.0905 53.4707 34.0547 56.5066 34.0547 60.2381V67.7079C34.0547 69.9468 35.8761 71.7683 38.1151 71.7683H44.109C43.9587 71.3446 43.8762 70.8892 43.8762 70.4147V56.7124Z" fill="black"/>
<path d="M61.6496 49.9443H53.3611C49.6296 49.9443 46.5938 52.9802 46.5938 56.7117V70.4141C46.5938 71.1615 47.1997 71.7676 47.9472 71.7676H67.0635C67.811 71.7676 68.417 71.1616 68.417 70.4141V56.7117C68.417 52.9802 65.3811 49.9443 61.6496 49.9443Z" fill="black"/>
<path d="M57.4941 32C53.0064 32 49.3555 35.651 49.3555 40.1387C49.3555 43.1827 51.0356 45.8413 53.5167 47.237C54.6936 47.899 56.0503 48.2774 57.4941 48.2774C58.9379 48.2774 60.2946 47.899 61.4715 47.237C63.9528 45.8413 65.6327 43.1826 65.6327 40.1387C65.6327 35.6511 61.9818 32 57.4941 32Z" fill="black"/>
<path d="M43.2038 39.5869C39.8476 39.5869 37.1172 42.3173 37.1172 45.6735C37.1172 49.0298 39.8476 51.7602 43.2038 51.7602C44.0552 51.7602 44.8659 51.5838 45.6023 51.2668C46.8756 50.7186 47.9254 49.7483 48.5751 48.5328C49.031 47.6797 49.2904 46.7065 49.2904 45.6735C49.2904 42.3174 46.56 39.5869 43.2038 39.5869Z" fill="black"/>
<path d="M71.7976 39.5869C68.4413 39.5869 65.7109 42.3173 65.7109 45.6735C65.7109 46.7066 65.9703 47.6798 66.4263 48.5328C67.076 49.7484 68.1258 50.7187 69.3991 51.2668C70.1355 51.5838 70.9462 51.7602 71.7976 51.7602C75.1538 51.7602 77.8842 49.0298 77.8842 45.6735C77.8842 42.3173 75.1538 39.5869 71.7976 39.5869Z" fill="black"/>
</svg>
