<svg width="33" height="33" viewBox="0 0 33 33" fill="none" xmlns="http://www.w3.org/2000/svg">
<g clip-path="url(#clip0_1001_3401)">
<path d="M2.00195 7.94287C1.30937 7.94746 1.30937 7.9475 1.30937 7.94758L1.30937 7.94794L1.30938 7.94937L1.30942 7.95508L1.30957 7.97764L1.31015 8.06567L1.31236 8.40013L1.32026 9.59671L1.34423 13.2528C1.36168 15.9312 1.37908 18.649 1.37908 18.8308C1.37908 20.4068 1.83231 21.7454 2.66931 22.8507C3.49955 23.947 4.67838 24.7761 6.07648 25.3952C8.85732 26.6267 12.6312 27.0824 16.7023 27.0824C20.7734 27.0824 24.5476 26.6267 27.3287 25.3952C28.7269 24.7761 29.9059 23.947 30.7362 22.8507C31.5733 21.7455 32.0266 20.4069 32.0266 18.8309C32.0266 18.8309 32.0266 18.8308 32.0266 18.8308L32.0288 7.94301V7.94287C32.0288 7.18005 31.3985 6.59167 30.6596 6.59167C29.9222 6.59167 29.2893 7.17863 29.2893 7.94287V10.1885C26.9741 7.14432 23.0058 4.91873 16.7023 4.91873C10.4129 4.91873 6.37093 7.17015 4.04888 10.2449V7.94287C4.04888 7.17863 3.41599 6.59167 2.67857 6.59167C1.93968 6.59167 1.30935 7.18006 1.30934 7.94287L1.30937 7.94746L2.00195 7.94287Z" stroke="white" stroke-width="1.3852"/>
<path d="M10.4353 19.4662C11.5828 19.4662 12.5131 18.536 12.5131 17.3884C12.5131 16.2408 11.5828 15.3105 10.4353 15.3105C9.2877 15.3105 8.35742 16.2408 8.35742 17.3884C8.35742 18.536 9.2877 19.4662 10.4353 19.4662Z" fill="white"/>
<path d="M22.904 19.4662C24.0516 19.4662 24.9819 18.536 24.9819 17.3884C24.9819 16.2408 24.0516 15.3105 22.904 15.3105C21.7565 15.3105 20.8262 16.2408 20.8262 17.3884C20.8262 18.536 21.7565 19.4662 22.904 19.4662Z" fill="white"/>
<rect x="4.89723" y="13.2312" width="23.5489" height="8.31137" rx="4.15569" stroke="white" stroke-width="1.38523"/>
</g>
<defs>
<clipPath id="clip0_1001_3401">
<rect width="32" height="32" fill="white" transform="translate(0.667969 0.667969)"/>
</clipPath>
</defs>
</svg>
