<svg width="24" height="24" viewBox="0 0 24 24" fill="none" xmlns="http://www.w3.org/2000/svg">
<g clip-path="url(#clip0_420_1539)">
<path d="M0.998047 5.45666L0.478608 5.4602L0.47861 5.46047L0.478617 5.46154L0.478645 5.46582L0.478757 5.48274L0.479195 5.54876L0.480854 5.79961L0.486779 6.69704L0.504756 9.43909C0.517844 11.4479 0.530895 13.4863 0.530895 13.6226C0.530895 14.8046 0.870817 15.8086 1.49856 16.6375C2.12124 17.4597 3.00537 18.0816 4.05394 18.5459C6.13957 19.4696 8.96997 19.8113 12.0233 19.8113C15.0767 19.8113 17.9073 19.4696 19.9931 18.5459C21.0418 18.0816 21.926 17.4597 22.5487 16.6375C23.1766 15.8086 23.5165 14.8047 23.5166 13.6227C23.5166 13.6227 23.5166 13.6226 23.5166 13.6226L23.5182 5.45677V5.45666C23.5182 4.88455 23.0454 4.44327 22.4913 4.44327C21.9382 4.44327 21.4635 4.88348 21.4635 5.45666V7.14088C19.7271 4.85775 16.7509 3.18856 12.0233 3.18856C7.30629 3.18856 4.27478 4.87713 2.53324 7.18321V5.45666C2.53324 4.88348 2.05857 4.44327 1.50551 4.44327C0.951343 4.44327 0.478596 4.88456 0.478584 5.45666L0.478607 5.46011L0.998047 5.45666Z" stroke="black" stroke-width="1.0389"/>
<path d="M7.32205 14.0972C8.18272 14.0972 8.88044 13.3995 8.88044 12.5389C8.88044 11.6782 8.18272 10.9805 7.32205 10.9805C6.46138 10.9805 5.76367 11.6782 5.76367 12.5389C5.76367 13.3995 6.46138 14.0972 7.32205 14.0972Z" fill="black"/>
<path d="M16.6717 14.0972C17.5323 14.0972 18.23 13.3995 18.23 12.5389C18.23 11.6782 17.5323 10.9805 16.6717 10.9805C15.811 10.9805 15.1133 11.6782 15.1133 12.5389C15.1133 13.3995 15.811 14.0972 16.6717 14.0972Z" fill="black"/>
<rect x="3.16999" y="9.42195" width="17.6617" height="6.23353" rx="3.11677" stroke="black" stroke-width="1.03892"/>
</g>
<defs>
<clipPath id="clip0_420_1539">
<rect width="24" height="24" fill="white"/>
</clipPath>
</defs>
</svg>
