<svg width="58" height="58" viewBox="0 0 58 58" fill="none" xmlns="http://www.w3.org/2000/svg">
<path fill-rule="evenodd" clip-rule="evenodd" d="M37.2923 8.83257H49.081V20.6212L57.4136 28.9539L49.081 37.2865V49.0766H37.2909L28.9568 57.4107L20.6227 49.0766H8.83696V37.2908L0.5 28.9539L8.83696 20.6169V8.83257H20.6213L28.9568 0.49707L37.2923 8.83257ZM34.6944 8.83257L29.8753 4.01349V8.83257H34.6944ZM28.0384 8.83257V4.01343L23.2192 8.83257H28.0384ZM8.83696 23.2148L4.0148 28.037L8.80341 28.037V28.033H8.83696V23.2148ZM26.743 28.033H10.6739V21.3778L15.3809 16.6709L26.743 28.033ZM47.244 28.033H31.1484L42.5216 16.6598L47.244 21.3821V28.033ZM8.83696 29.874L4.01798 29.874L8.83696 34.6929V29.874ZM23.2206 49.0766L28.0384 53.8943V49.0796H28.009V49.0766H23.2206ZM28.009 47.2396H21.3836L16.6627 42.5187L28.009 31.1724V47.2396ZM28.009 26.6978L16.6815 15.3703L21.3822 10.6696H28.009V26.6978ZM29.8753 49.0766V53.8943L34.693 49.0766H29.8753ZM49.081 34.6886L53.8958 29.8738L49.081 29.8738V34.6886ZM49.081 28.0368L53.8987 28.0368L49.081 23.2191V28.0368ZM47.244 18.7842V10.6696H39.1293L47.244 18.7842ZM47.244 29.8738L31.1851 29.8739L42.5404 41.2292L47.244 36.5256V29.8738ZM47.244 39.1235L39.1279 47.2396H47.244V39.1235ZM36.53 47.2396L41.2398 42.5298L29.8753 31.1654V47.2396H36.53ZM18.7857 47.2396L15.3638 43.8177L15.3616 43.8199L14.0556 42.5139L14.0578 42.5117L10.6739 39.1278V47.2396H18.7857ZM10.6739 36.5299L15.3567 41.2127L26.6956 29.8739L10.6739 29.874V36.5299ZM10.6739 18.7799L14.0819 15.372L14.0615 15.3515L15.3621 14.0509L15.3826 14.0713L18.7843 10.6696H10.6739V18.7799ZM29.8753 10.6696V26.6941L41.2157 15.3538L36.5314 10.6696H29.8753Z" fill="black"/>
</svg>
