<svg width="40" height="40" viewBox="0 0 40 40" fill="none" xmlns="http://www.w3.org/2000/svg">
<path fill-rule="evenodd" clip-rule="evenodd" d="M25.5655 6.56548H33.4365V14.4365L39 20L33.4365 25.5635V33.4355H25.5645L20 39L14.4355 33.4355H6.56641V25.5664L1 20L6.56641 14.4336V6.56548H14.4345L20 1L25.5655 6.56548ZM23.8309 6.56548L20.6133 3.34784V6.56548H23.8309ZM19.3868 6.56548V3.3478L16.1691 6.56548H19.3868ZM6.56641 16.1681L3.34676 19.3878L6.544 19.3878V19.3852H6.56641V16.1681ZM18.5219 19.3852H7.79292V14.9416L10.9356 11.7989L18.5219 19.3852ZM32.2099 19.3852H21.4635L29.0571 11.7916L32.2099 14.9445V19.3852ZM6.56641 20.6143L3.34888 20.6143L6.56641 23.8318V20.6143ZM16.1701 33.4355L19.3868 36.6522V33.4375H19.3672V33.4355H16.1701ZM19.3672 32.209H14.9436L11.7916 29.0571L19.3672 21.4815V32.209ZM19.3672 18.4937L11.804 10.9305L14.9426 7.792H19.3672V18.4937ZM20.6133 33.4355V36.6522L23.8299 33.4355H20.6133ZM33.4365 23.829L36.6512 20.6142L33.4365 20.6142V23.829ZM33.4365 19.3877L36.6531 19.3877L33.4365 16.171V19.3877ZM32.2099 13.2099V7.792H26.792L32.2099 13.2099ZM32.2099 20.6142L21.4878 20.6143L29.0695 28.196L32.2099 25.0555V20.6142ZM32.2099 26.7901L26.791 32.209H32.2099V26.7901ZM25.0564 32.209L28.2011 29.0644L20.6133 21.4766V32.209H25.0564ZM13.209 32.209L10.9243 29.9243L10.9229 29.9257L10.051 29.0538L10.0524 29.0524L7.79292 26.7929V32.209H13.209ZM7.79292 25.0584L10.9196 28.1851L18.4905 20.6143L7.79292 20.6143V25.0584ZM7.79292 13.2071L10.0684 10.9316L10.0547 10.918L10.9231 10.0496L10.9368 10.0632L13.208 7.792H7.79292V13.2071ZM20.6133 7.792V18.4915L28.1851 10.9196L25.0574 7.792H20.6133Z" fill="white"/>
</svg>
