<svg width="33" height="33" viewBox="0 0 33 33" fill="none" xmlns="http://www.w3.org/2000/svg">
<g clip-path="url(#clip0_1001_3408)">
<path d="M26.2599 30.1237C25.5972 30.1237 24.9545 29.9208 24.4036 29.5375L14.9693 22.9793C14.4402 22.6116 14.1066 22.0327 14.0521 21.391C13.9975 20.7493 14.2303 20.1221 14.6902 19.6707L22.9609 11.5505L12.4648 18.8442C11.3794 19.5987 10.1095 19.9974 8.79222 19.9974C8.23406 19.9974 7.67589 19.9246 7.13409 19.7808L2.04514 18.4273C1.32062 18.2352 0.818812 17.6272 0.766086 16.8781C0.71427 16.128 1.12699 15.4554 1.81878 15.1641L29.2462 3.61693C29.548 3.4895 29.8634 3.42578 30.1834 3.42578C30.7125 3.42578 31.2179 3.60055 31.6452 3.93278C32.3388 4.46982 32.6779 5.30996 32.5525 6.17923L29.4925 27.323C29.3298 28.4516 28.6089 29.3965 27.5644 29.8507C27.1472 30.0327 26.7081 30.1246 26.259 30.1246L26.2599 30.1237ZM23.9145 9.77919C24.1691 9.77919 24.4091 9.87385 24.59 10.0459C24.7863 10.2325 24.8954 10.4846 24.8981 10.755C24.8999 11.0253 24.7954 11.2783 24.6027 11.4677L15.4529 20.4507C15.2266 20.6737 15.112 20.9823 15.1384 21.2991C15.1648 21.6158 15.3302 21.9016 15.5911 22.0828L25.0254 28.641C25.3927 28.8958 25.8199 29.0315 26.2608 29.0315C26.5599 29.0315 26.8517 28.9705 27.1299 28.8494C27.8253 28.5463 28.3044 27.9173 28.4135 27.1664L31.4734 6.02176C31.5425 5.54753 31.357 5.08968 30.9789 4.79659C30.7452 4.61545 30.4698 4.51988 30.1816 4.51988C30.0071 4.51988 29.8344 4.55538 29.6698 4.62455L2.2415 16.169C1.93242 16.2992 1.83878 16.5804 1.85333 16.7998C1.86878 17.0192 2.0006 17.284 2.32332 17.3696L7.41317 18.7231C7.86316 18.8423 8.32678 18.9033 8.7904 18.9033C9.88492 18.9033 10.9403 18.572 11.8421 17.9458L23.3327 9.96123C23.5045 9.84199 23.7063 9.77828 23.9145 9.77828V9.77919Z" fill="white"/>
<path d="M30.1817 3.51798C30.6808 3.51798 31.1726 3.68365 31.5881 4.00587C32.2553 4.52288 32.5817 5.33116 32.4608 6.16675L29.4008 27.3105C29.2427 28.4073 28.5418 29.3257 27.5264 29.7681C27.1173 29.9465 26.6855 30.0339 26.2573 30.0339C25.6228 30.0339 24.9955 29.8409 24.4528 29.4641L15.0185 22.9059C14.5122 22.5536 14.1922 21.9993 14.1404 21.384C14.0885 20.7687 14.3113 20.1679 14.7513 19.7365L23.7892 10.8635L12.4113 18.7698C11.335 19.518 10.0714 19.9067 8.79052 19.9067C8.24417 19.9067 7.69509 19.8357 7.15602 19.6928L2.06707 18.3393C1.38073 18.1572 0.905286 17.581 0.855287 16.8711C0.806198 16.1611 1.1971 15.523 1.85344 15.2472L29.2799 3.70276C29.5736 3.57897 29.879 3.51798 30.1817 3.51798ZM8.7887 18.9955C9.88685 18.9955 10.9695 18.6624 11.8922 18.0216L23.3828 10.0371C23.5437 9.92509 23.7292 9.87048 23.9128 9.87048C24.1364 9.87048 24.3573 9.9524 24.5255 10.1117C24.7037 10.281 24.8028 10.5095 24.8046 10.7552C24.8064 11.001 24.7119 11.2304 24.5364 11.4024L15.3867 20.3855C15.1403 20.6267 15.0158 20.9625 15.0449 21.3066C15.074 21.6507 15.2531 21.9602 15.5358 22.1568L24.9701 28.715C25.3573 28.9844 25.8055 29.1218 26.2573 29.1218C26.5627 29.1218 26.8709 29.059 27.1627 28.9316C27.8872 28.6167 28.3863 27.9613 28.5 27.1785L31.5617 6.03568C31.6353 5.52868 31.4371 5.03898 31.0326 4.72495C30.7808 4.52925 30.4826 4.42912 30.1799 4.42912C29.9963 4.42912 29.8108 4.46644 29.6327 4.54108L2.20434 16.0864C1.85071 16.2357 1.74344 16.557 1.76072 16.8083C1.77799 17.0586 1.92889 17.3617 2.29888 17.46L7.38874 18.8135C7.85054 18.9364 8.32053 18.9955 8.7887 18.9955ZM30.1817 3.33594C29.849 3.33594 29.5217 3.40238 29.209 3.53437L1.78162 15.0797C1.05255 15.3865 0.618021 16.0946 0.672565 16.8838C0.727109 17.6721 1.25619 18.3129 2.01889 18.5149L7.10784 19.8684C7.65691 20.0141 8.22235 20.0887 8.78961 20.0887C10.1259 20.0887 11.4141 19.6846 12.514 18.92L22.1274 12.2398L14.624 19.6063C14.1449 20.0769 13.9031 20.7304 13.9595 21.3995C14.0158 22.0685 14.364 22.672 14.9158 23.0552L24.3501 29.6134C24.9173 30.0075 25.5773 30.2159 26.2591 30.2159C26.7209 30.2159 27.1718 30.1213 27.6009 29.9347C28.6745 29.4677 29.4154 28.4965 29.5827 27.336L32.6407 6.19224C32.7717 5.2902 32.4198 4.41911 31.6999 3.86114C31.2562 3.51707 30.7317 3.33594 30.1817 3.33594ZM8.7887 18.8135C8.33235 18.8135 7.87691 18.7534 7.4351 18.636L2.34525 17.2825C1.99616 17.1896 1.94889 16.8856 1.94253 16.7946C1.93617 16.7036 1.94162 16.3941 2.27525 16.2539L29.7027 4.70947C29.8563 4.64485 30.0172 4.61208 30.179 4.61208C30.4472 4.61208 30.7035 4.70128 30.9208 4.86968C31.2735 5.14274 31.4453 5.56873 31.3817 6.01019L28.3218 27.1539C28.2181 27.8739 27.7582 28.4765 27.0918 28.7659C26.8255 28.8815 26.5455 28.9407 26.2591 28.9407C25.8364 28.9407 25.4273 28.8115 25.0755 28.5666L15.6412 22.0084C15.4031 21.8427 15.2522 21.5815 15.2276 21.292C15.2031 21.0026 15.3076 20.7195 15.5149 20.5165L24.6646 11.5335C24.8746 11.3268 24.9891 11.0501 24.9873 10.7543C24.9846 10.4594 24.8655 10.1845 24.651 9.98062C24.4537 9.7922 24.191 9.68934 23.9128 9.68934C23.6855 9.68934 23.4665 9.75852 23.2792 9.88868L11.7886 17.8732C10.9023 18.4894 9.86503 18.8135 8.7887 18.8135Z" fill="white"/>
</g>
<defs>
<clipPath id="clip0_1001_3408">
<rect width="32" height="26.88" fill="white" transform="translate(0.667969 3.33594)"/>
</clipPath>
</defs>
</svg>
