<svg width="24" height="24" viewBox="0 0 24 24" fill="none" xmlns="http://www.w3.org/2000/svg">
<g clip-path="url(#clip0_420_1546)">
<path d="M19.192 22.0918C18.695 22.0918 18.2129 21.9396 17.7998 21.6522L10.7241 16.7335C10.3273 16.4577 10.077 16.0236 10.0361 15.5423C9.99522 15.061 10.1698 14.5906 10.5147 14.252L16.7178 8.16189L8.84571 13.6321C8.03164 14.1981 7.07916 14.4971 6.09124 14.4971C5.67261 14.4971 5.25399 14.4425 4.84764 14.3346L1.03093 13.3195C0.487532 13.1754 0.111179 12.7194 0.0716351 12.1576C0.0327726 11.5951 0.342309 11.0906 0.861158 10.8721L21.4317 2.21172C21.6581 2.11615 21.8947 2.06836 22.1346 2.06836C22.5315 2.06836 22.9105 2.19943 23.231 2.44861C23.7512 2.85138 24.0055 3.48149 23.9114 4.13344L21.6165 19.9912C21.4944 20.8378 20.9538 21.5464 20.1704 21.887C19.8574 22.0236 19.5281 22.0925 19.1913 22.0925L19.192 22.0918ZM17.433 6.83341C17.6239 6.83341 17.8039 6.90441 17.9395 7.03344C18.0868 7.17338 18.1686 7.36248 18.1707 7.56524C18.172 7.76799 18.0936 7.95777 17.9491 8.09977L11.0868 14.8371C10.917 15.0043 10.8311 15.2357 10.8509 15.4733C10.8706 15.7109 10.9947 15.9252 11.1904 16.0611L18.2661 20.9798C18.5416 21.1709 18.862 21.2726 19.1927 21.2726C19.417 21.2726 19.6359 21.2269 19.8445 21.1361C20.3661 20.9088 20.7254 20.437 20.8072 19.8738L23.1021 4.01534C23.1539 3.65967 23.0148 3.31628 22.7312 3.09646C22.556 2.96061 22.3494 2.88893 22.1333 2.88893C22.0024 2.88893 21.8728 2.91556 21.7494 2.96744L1.17819 11.6258C0.946383 11.7234 0.876158 11.9343 0.887067 12.0989C0.898657 12.2634 0.997518 12.462 1.23956 12.5262L5.05695 13.5414C5.39444 13.6308 5.74216 13.6765 6.08987 13.6765C6.91076 13.6765 7.70233 13.428 8.37867 12.9584L16.9966 6.96995C17.1255 6.88052 17.2768 6.83273 17.433 6.83273V6.83341Z" fill="black"/>
<path d="M22.1353 2.13653C22.5096 2.13653 22.8785 2.26078 23.1901 2.50245C23.6905 2.8902 23.9353 3.49642 23.8446 4.12311L21.5497 19.9809C21.431 20.8035 20.9054 21.4923 20.1438 21.8241C19.837 21.9579 19.5131 22.0235 19.192 22.0235C18.7161 22.0235 18.2457 21.8787 17.8386 21.5961L10.7629 16.6775C10.3832 16.4133 10.1432 15.9975 10.1043 15.536C10.0654 15.0745 10.2325 14.624 10.5625 14.3004L17.3409 7.6457L8.80752 13.5754C8.00027 14.1366 7.05257 14.4281 6.09191 14.4281C5.68215 14.4281 5.27034 14.3748 4.86604 14.2676L1.04933 13.2525C0.534569 13.116 0.177988 12.6838 0.140489 12.1513C0.103672 11.6189 0.396845 11.1403 0.889104 10.9335L21.459 2.27512C21.6792 2.18227 21.9083 2.13653 22.1353 2.13653ZM6.09055 13.7447C6.91416 13.7447 7.72618 13.4948 8.41821 13.0142L17.0361 7.02584C17.1568 6.94187 17.2959 6.90091 17.4336 6.90091C17.6014 6.90091 17.767 6.96235 17.8932 7.08181C18.0268 7.20879 18.1011 7.38014 18.1025 7.56446C18.1038 7.74879 18.0329 7.92082 17.9013 8.04984L11.039 14.7871C10.8543 14.968 10.7609 15.22 10.7827 15.478C10.8045 15.7361 10.9388 15.9682 11.1509 16.1156L18.2266 21.0343C18.517 21.2363 18.8531 21.3394 19.192 21.3394C19.4211 21.3394 19.6522 21.2923 19.8711 21.1968C20.4145 20.9605 20.7888 20.469 20.874 19.8819L23.1703 4.02481C23.2255 3.64456 23.0769 3.27728 22.7735 3.04176C22.5846 2.89498 22.361 2.81989 22.134 2.81989C21.9962 2.81989 21.8571 2.84788 21.7235 2.90386L1.15228 11.5629C0.887059 11.6748 0.806606 11.9158 0.819561 12.1042C0.832515 12.292 0.945693 12.5193 1.22319 12.593L5.04058 13.6082C5.38693 13.7003 5.73942 13.7447 6.09055 13.7447ZM22.1353 2C21.8858 2 21.6403 2.04984 21.4058 2.14882L0.835242 10.8078C0.288439 11.0379 -0.0374605 11.569 0.0034474 12.1609C0.0443553 12.7521 0.441162 13.2327 1.01319 13.3842L4.8299 14.3994C5.24171 14.5086 5.66579 14.5646 6.09123 14.5646C7.09347 14.5646 8.05958 14.2615 8.88456 13.688L16.0946 8.6779L10.467 14.2028C10.1077 14.5557 9.92635 15.0459 9.96862 15.5476C10.0109 16.0494 10.272 16.502 10.6859 16.7894L17.7616 21.7081C18.187 22.0037 18.682 22.16 19.1934 22.16C19.5397 22.16 19.8779 22.089 20.1997 21.9491C21.0049 21.5988 21.5606 20.8704 21.686 20L23.9796 4.14223C24.0778 3.4657 23.8139 2.81238 23.2739 2.3939C22.9412 2.13585 22.5478 2 22.1353 2ZM6.09055 13.6082C5.74828 13.6082 5.4067 13.5631 5.07535 13.475L1.25796 12.4599C0.996146 12.3903 0.960693 12.1623 0.95592 12.094C0.951148 12.0257 0.955239 11.7936 1.20546 11.6885L21.776 3.03015C21.8912 2.98168 22.0119 2.95711 22.1333 2.95711C22.3344 2.95711 22.5267 3.02401 22.6896 3.1503C22.9542 3.3551 23.083 3.6746 23.0353 4.00569L20.7404 19.8635C20.6626 20.4035 20.3176 20.8554 19.8179 21.0725C19.6181 21.1592 19.4081 21.2036 19.1934 21.2036C18.8763 21.2036 18.5695 21.1066 18.3057 20.923L11.2299 16.0043C11.0513 15.8801 10.9381 15.6842 10.9197 15.4671C10.9013 15.25 10.9797 15.0377 11.1352 14.8854L17.9975 8.14815C18.155 7.99318 18.2409 7.78565 18.2395 7.56378C18.2375 7.3426 18.1482 7.13643 17.9873 6.98351C17.8393 6.8422 17.6423 6.76505 17.4336 6.76505C17.2632 6.76505 17.0989 6.81694 16.9584 6.91456L8.34048 12.903C7.67573 13.3651 6.8978 13.6082 6.09055 13.6082Z" fill="black"/>
</g>
<defs>
<clipPath id="clip0_420_1546">
<rect width="24" height="20.16" fill="white" transform="translate(0 2)"/>
</clipPath>
</defs>
</svg>
