<svg width="60" height="60" viewBox="0 0 60 60" fill="none" xmlns="http://www.w3.org/2000/svg">
<circle cx="30" cy="30" r="30" fill="#D9D9D9"/>
<path d="M37.6855 45.0352C36.9399 45.0352 36.2169 44.8068 35.5971 44.3757L24.9836 36.9978C24.3883 36.5841 24.013 35.9328 23.9517 35.2109C23.8903 34.4889 24.1521 33.7834 24.6696 33.2755L33.9741 24.1403L22.166 32.3457C20.9449 33.1946 19.5162 33.6431 18.0343 33.6431C17.4064 33.6431 16.7784 33.5612 16.1689 33.3994L10.4439 31.8767C9.62876 31.6606 9.06423 30.9766 9.00491 30.1338C8.94662 29.29 9.41092 28.5333 10.1892 28.2056L41.045 15.215C41.3846 15.0717 41.7394 15 42.0994 15C42.6946 15 43.2633 15.1966 43.7439 15.5704C44.5242 16.1745 44.9057 17.1197 44.7646 18.0976L41.3222 41.8843C41.1391 43.1541 40.3281 44.217 39.153 44.728C38.6836 44.9328 38.1907 45.0352 37.6855 45.0352Z" fill="black"/>
</svg>
