<svg width="41" height="282" viewBox="0 0 41 282" fill="none" xmlns="http://www.w3.org/2000/svg">
<path d="M0.597656 270.385C0.597656 264.143 5.70498 259.083 12.0052 259.083H28.6777C34.9779 259.083 40.0852 264.143 40.0852 270.385C40.0852 276.627 34.9779 281.687 28.6777 281.687H12.0052C5.70497 281.687 0.597656 276.627 0.597656 270.385Z" fill="black"/>
<path d="M0.597656 10.876H40.0852V35.2185H0.597656V10.876Z" fill="black"/>
<path d="M0.597656 11.3107C0.597656 5.06882 5.70498 0.00878906 12.0052 0.00878906H28.6777C34.9779 0.00878906 40.0852 5.06882 40.0852 11.3107C40.0852 17.5525 34.9779 22.6126 28.6777 22.6126H12.0052C5.70497 22.6126 0.597656 17.5525 0.597656 11.3107Z" fill="black"/>
<rect x="0.597656" y="34.2314" width="39.4876" height="235.609" fill="#824CC9"/>
</svg>
